<?xml version="1.0" encoding="UTF-8"?>
<svg width="286px" height="315px" viewBox="0 0 286 315" version="1.1" xmlns="http://www.w3.org/2000/svg" xmlns:xlink="http://www.w3.org/1999/xlink">
    <!-- Generator: Sketch 51.3 (57544) - http://www.bohemiancoding.com/sketch -->
    <title>logo graphics</title>
    <desc>Created with Sketch.</desc>
    <defs></defs>
    <g id="Symbols" stroke="none" stroke-width="1" fill="none" fill-rule="evenodd">
        <g id="logo" transform="translate(-88.000000, -49.000000)">
            <g id="logo-graphics" transform="translate(88.000000, 48.726562)">
                <path d="M137.4,40.1001 C213.229,40.1001 274.7,101.5711 274.7,177.4001 C274.7,253.2281 213.229,314.7001 137.4,314.7001 C61.571,314.7001 0.1,253.2281 0.1,177.4001 C0.1,101.5711 61.571,40.1001 137.4,40.1001" id="Fill-3" fill="#000000"></path>
                <path d="M199.9,143.8999 C200.3,143.6999 202.6,148.2999 202.9,148.7999 C206.8,156.8999 206.8,166.0999 206.3,174.8999 C206.3,175.6999 206.2,176.5999 206.2,177.3999 C206.2,177.9999 206.1,178.5999 206.1,179.1999 C206.1,179.5999 206.2,180.4999 206,180.7999 L203,185.2999 L179.9,227.6999 L102.2,237.1999 L87.4,221.5999 C87.4,221.5999 74.2,202.2999 75.8,170.9999 C76.3,161.4999 80.9,148.3999 85.1,143.7999 C98.7,128.9999 125.6,155.5999 143.9,155.5999 L143.9,154.8999 L144.6,155.5999 C162.7,155.4999 181.6,151.1999 199.9,143.8999" id="Fill-5" fill="#CCCCCC"></path>
                <path d="M159.8004,61.2002 C193.4004,78.7002 235.1004,86.1002 285.4994,83.9002 C239.4994,132.1002 191.9004,156.3002 144.4004,155.5002 L143.6994,154.8002 L143.6994,155.5002 C96.1994,156.2002 48.6994,132.1002 2.6004,83.9002 C53.0004,86.1002 94.6994,78.8002 128.3004,61.2002 C132.0004,67.8002 137.1004,72.2002 142.9004,74.4002 L142.9004,81.0002 C123.9004,96.3002 106.4004,96.3002 91.6994,81.7002 C105.6004,99.2002 123.1004,101.4002 143.6004,88.3002 C164.8004,101.5002 182.3004,99.3002 196.1994,81.7002 C181.6004,96.3002 163.9994,96.3002 144.9994,81.0002 L144.9994,74.4002 C150.9994,72.2002 156.1004,67.8002 159.8004,61.2002" id="Fill-7" fill="#E8EAEA"></path>
                <path d="M2.6002,83.8999 C23.8002,67.7999 37.0002,58.9999 42.1002,58.2999 C32.6002,35.5999 29.7002,16.5999 31.9002,0.5999 C61.9002,4.2999 82.3002,11.5999 93.3002,22.4999 C124.7002,7.1999 158.3002,6.3999 194.2002,21.7999 C218.3002,7.1999 238.8002,0.5999 255.6002,0.5999 C256.3002,26.8999 252.7002,45.8999 244.6002,57.5999 L284.8002,83.8999 C234.4002,86.0999 192.7002,78.7999 159.8002,61.1999 C156.1002,67.7999 150.9992,72.1999 145.2002,74.3999 L145.2002,80.9999 C164.2002,96.2999 181.7002,96.2999 196.4002,81.6999 C182.4992,99.1999 164.9992,101.3999 143.8002,88.2999 C123.3002,101.4999 105.8002,99.2999 91.9002,81.6999 C106.5002,96.2999 124.1002,96.2999 143.1002,80.9999 L143.1002,74.3999 C137.3002,72.1999 132.1002,67.7999 128.5002,61.1999 C94.7002,78.7999 53.1002,86.0999 2.6002,83.8999" id="Fill-9" fill="#D83B01"></path>
                <path d="M41.4,10.1001 C53.8,10.1001 67.7,15.9001 83.8,28.4001 C63.3,41.6001 53.1,49.6001 52.4,52.5001 C42.1,34.2001 39.2,20.3001 41.4,10.1001" id="Fill-11" fill="#FF8C00"></path>
                <path d="M246.6998,10.1001 C234.3008,10.1001 220.3998,15.9001 204.3008,28.4001 C224.8008,41.6001 234.9998,49.6001 235.6998,52.5001 C245.9998,34.2001 248.8998,20.3001 246.6998,10.1001" id="Fill-13" fill="#FF8C00"></path>
                <path d="M143.6998,88.2998 C164.8998,101.4998 182.3998,99.2998 196.3008,81.6998 C181.6998,96.2998 164.0998,96.2998 145.0998,80.9998 L145.0998,74.3998 C150.8998,72.1998 156.0998,67.7998 159.6998,61.1998 C153.8998,53.8998 134.0998,53.8998 128.2998,61.1998 C131.9998,67.7998 137.0998,72.1998 142.8998,74.3998 L142.8998,80.9998 C123.8998,96.2998 106.3998,96.2998 91.6998,81.6998 C105.6998,99.1998 123.1998,101.3998 143.6998,88.2998" id="Fill-15" fill="#6B3700"></path>
                <path d="M109.2999,58.2998 C50.8999,61.1998 93.9999,31.9998 109.2999,58.2998" id="Fill-17" fill="#6B3700"></path>
                <path d="M178.8004,58.2998 C237.1994,61.1998 194.1004,31.9998 178.8004,58.2998" id="Fill-19" fill="#6B3700"></path>
                <path d="M133.0001,223 C132.6001,220.9 129.7001,212.1 128.7001,210.4 C127.3001,208 125.3001,206 123.4001,204 L122.9001,203.5 C121.0001,201.7 118.7001,200.3 116.8001,198.4 C114.5001,196.1 112.4001,193.6 110.7001,190.8 C107.4001,185.3 105.6001,178.9 105.6001,172.4 C105.6001,159.7 112.4001,148 123.3001,141.7 C134.3001,135.4 147.8001,135.4 158.7001,141.7 C169.7001,148 176.4001,159.7 176.4001,172.4 C176.4001,180.7 173.2001,189.8 167.3001,196.1 C160.2001,203.7 151.6001,209.3 149.2001,220.1 C149.2001,220.1 145.6001,221.1 141.0001,221.9 C138.5001,222.4 135.7001,222.8 133.0001,223" id="Fill-21" fill="#FFFFFF"></path>
                <path d="M156.1002,178.7998 C155.6002,178.7998 155.1002,178.9998 154.7002,179.4008 C153.9992,179.9998 153.2002,180.9998 152.4002,182.7998 C154.7002,181.7998 156.7002,180.6998 157.4992,179.7998 C157.8002,179.4998 157.8002,179.2998 157.8002,179.2998 C157.8002,179.2998 157.6002,178.9998 156.4992,178.7998 L156.1002,178.7998 M126.2002,178.6998 C126.0002,178.6998 125.8002,178.6998 125.7002,178.7998 C125.4002,178.8998 124.9002,179.0998 124.9002,179.4008 C125.0002,180.1998 127.0002,181.5998 129.8002,182.7998 C129.0002,180.9998 128.2002,179.6998 127.3002,179.0998 C126.8002,178.7998 126.5002,178.6998 126.2002,178.6998 M137.6002,222.9998 L143.7002,222.9998 C143.9992,218.7998 145.7002,196.9998 149.9002,185.1998 C146.9992,186.1998 143.6002,186.9998 140.9992,186.9998 C138.4992,186.9998 135.3002,186.4008 132.0002,185.1998 C133.3002,189.4008 134.5002,195.2998 135.6002,202.7998 C136.8002,211.9008 137.4992,220.5998 137.6002,222.9998 M144.4002,224.4008 L137.0002,224.4008 C136.6002,224.4008 136.3002,224.0998 136.3002,223.7998 C135.8002,214.9998 133.9002,194.6998 130.4002,184.6998 C130.3002,184.6998 130.2002,184.5998 130.2002,184.5998 C128.3002,183.7998 123.9002,181.7998 123.6002,179.7998 C123.5002,179.2998 123.6002,178.2998 125.3002,177.6998 C126.2002,177.3998 127.2002,177.4998 128.0002,178.0998 C129.3002,178.8998 130.4002,180.7998 131.5002,183.6998 C134.6002,184.9008 138.1002,185.7998 141.1002,185.7998 C143.7002,185.7998 147.4002,184.9008 150.7002,183.6998 C151.7002,181.2998 152.8002,179.4998 153.9992,178.5998 C154.9002,177.8998 155.8002,177.5998 156.8002,177.7998 C158.9002,178.0998 159.3002,178.9998 159.2002,179.6998 C158.9992,181.5998 154.8002,183.5998 152.3002,184.5998 C152.1002,184.6998 151.9002,184.7998 151.7002,184.7998 C150.3002,188.4998 148.8002,194.4008 147.4002,203.7998 C145.9002,214.0998 145.2002,223.9008 145.2002,223.9998 C144.9992,224.0998 144.7002,224.4008 144.4002,224.4008" id="Fill-23" fill="#505050"></path>
                <path d="M80.1998,232.5996 C140.0998,263.2996 182.4998,245.7996 205.8998,180.7006 C181.8008,212.0996 150.3998,225.2996 113.0998,221.5996 C99.8998,228.2006 88.9998,231.9006 80.1998,232.5996" id="Fill-25" fill="#FF8C00"></path>
                <path d="M205.9,180.7002 C277.5,254.9002 147,343.4002 70,270.5992 C60.9,262.0002 80.2,247.9002 80.2,232.5992 C140.1,263.3002 182.5,245.8002 205.9,180.7002" id="Fill-27" fill="#D83B01"></path>
                <path d="M70.0001,270.5996 C77.3001,260.4006 80.2001,247.9006 80.2001,232.5996 C57.5001,220.9006 47.3001,205.5996 48.8001,186.5996 C40.7001,219.4006 48.0001,247.9006 70.0001,270.5996" id="Fill-29" fill="#CCCCCC"></path>
                <path d="M48.7999,186.5 C47.2999,205.5 57.5999,220.9 80.1999,232.5 C85.2999,232.5 91.1999,231 97.6999,228.1 L98.3999,228.1 L99.0999,228.1 L99.0999,227.4 L99.7999,227.4 L100.4999,227.4 C100.4999,226.7 101.1999,226.7 101.1999,226.7 L101.8999,226.7 C101.8999,226.7 102.5999,226.7 102.5999,226 L103.2999,226 L103.9999,226 L103.9999,225.3 L104.6999,225.3 L105.3999,225.3 L105.3999,224.6 L106.0999,224.6 C106.7999,224.6 107.5999,223.9 108.2999,223.9 C109.7999,223.2 110.4999,222.4 111.9999,221.7 C104.6999,221 97.3999,219.5 90.7999,217.3 C75.7999,212.1 61.8999,201.9 48.7999,186.5" id="Fill-31" fill="#E9E8E8"></path>
            </g>
        </g>
    </g>
</svg>