<?xml version="1.0" encoding="UTF-8"?>
<svg width="100px" height="100px" viewBox="0 0 100 100" version="1.1" xmlns="http://www.w3.org/2000/svg" xmlns:xlink="http://www.w3.org/1999/xlink">
    <!-- Generator: Sketch 51.3 (57544) - http://www.bohemiancoding.com/sketch -->
    <title>icon/building</title>
    <desc>Created with Sketch.</desc>
    <defs>
        <path d="M60.7421875,77.734375 L68.5546875,77.734375 L68.5546875,85.546875 L60.7421875,85.546875 L60.7421875,77.734375 Z M60.7421875,62.109375 L68.5546875,62.109375 L68.5546875,69.921875 L60.7421875,69.921875 L60.7421875,62.109375 Z M96.09375,72.65625 C93.9363281,72.65625 92.1875,70.9074219 92.1875,68.75 L92.1875,57.8125 C92.1875,55.6585938 90.4351563,53.90625 88.28125,53.90625 L67.1875,53.90625 C65.0300781,53.90625 63.28125,52.1574219 63.28125,50 L63.28125,32.421875 L53.375,24.9921875 C51.3878906,23.5017578 48.6123047,23.5017578 46.625,24.9921875 L36.71875,32.421875 L36.71875,50 C36.71875,52.1574219 34.9699219,53.90625 32.8125,53.90625 L11.71875,53.90625 C9.56484375,53.90625 7.8125,55.6585938 7.8125,57.8125 L7.8125,88.28125 C7.8125,90.4351563 9.56484375,92.1875 11.71875,92.1875 L45.8984375,92.1875 L45.8984375,81.640625 C45.8984375,79.4832031 47.6472656,77.734375 49.8046875,77.734375 C51.9621094,77.734375 53.7109375,79.4832031 53.7109375,81.640625 L53.7109375,92.1875 L88.28125,92.1875 C90.4351563,92.1875 92.1875,90.4351563 92.1875,88.28125 C92.1875,86.1238281 93.9363281,84.375 96.09375,84.375 C98.2511719,84.375 100,86.1238281 100,88.28125 C100,94.7429688 94.7429688,100 88.28125,100 L11.71875,100 C5.25703125,100 0,94.7429688 0,88.28125 L0,57.8125 C0,51.3507813 5.25703125,46.09375 11.71875,46.09375 L28.90625,46.09375 L28.90625,38.28125 C27.1802734,39.5753906 24.7318359,39.2259766 23.4375,37.5 C22.1431641,35.7740234 22.4929687,33.3255859 24.21875,32.03125 L41.9375,18.7421875 C43.2113281,17.7869141 44.6214844,17.0904297 46.09375,16.6478516 L46.09375,3.90625 C46.09375,2.62382813 46.7234375,1.42265625 47.7783203,0.693359375 C48.8332031,-0.0361328125 50.1792969,-0.201171875 51.3791016,0.2515625 L61.7306641,4.1578125 C63.2583984,4.73417969 64.2664063,6.20019531 64.2576172,7.83300781 C64.2490234,9.46582031 63.2257813,10.9210938 61.6919922,11.4814453 L53.90625,14.3263672 L53.90625,16.6478516 C55.3785156,17.0904297 56.7886719,17.7869141 58.0625,18.7421875 L75.78125,32.03125 C77.5070312,33.3255859 77.8568359,35.7740234 76.5625,37.5 C75.7951172,38.5230469 74.6220703,39.0626953 73.4345703,39.0626953 C72.6189453,39.0626953 71.7964844,38.8082031 71.09375,38.28125 L71.09375,46.09375 L88.28125,46.09375 C94.7429688,46.09375 100,51.3507813 100,57.8125 L100,68.75 C100,70.9074219 98.2511719,72.65625 96.09375,72.65625 Z M50,46.2890625 C46.7639565,46.2890625 44.140625,43.665731 44.140625,40.4296875 C44.140625,37.193644 46.7639565,34.5703125 50,34.5703125 C53.2360435,34.5703125 55.859375,37.193644 55.859375,40.4296875 C55.859375,43.665731 53.2360435,46.2890625 50,46.2890625 Z M76.5625,77.734375 L84.375,77.734375 L84.375,85.546875 L76.5625,85.546875 L76.5625,77.734375 Z M76.5625,62.109375 L84.375,62.109375 L84.375,69.921875 L76.5625,69.921875 L76.5625,62.109375 Z M15.625,77.734375 L23.4375,77.734375 L23.4375,85.546875 L15.625,85.546875 L15.625,77.734375 Z M15.625,62.109375 L23.4375,62.109375 L23.4375,69.921875 L15.625,69.921875 L15.625,62.109375 Z M46.09375,62.109375 L53.90625,62.109375 L53.90625,69.921875 L46.09375,69.921875 L46.09375,62.109375 Z M31.25,77.734375 L39.0625,77.734375 L39.0625,85.546875 L31.25,85.546875 L31.25,77.734375 Z M31.25,62.109375 L39.0625,62.109375 L39.0625,69.921875 L31.25,69.921875 L31.25,62.109375 Z" id="path-1"></path>
    </defs>
    <g id="icon/building" stroke="none" stroke-width="1" fill="none" fill-rule="evenodd">
        <mask id="mask-2" fill="white">
            <use xlink:href="#path-1"></use>
        </mask>
        <use id="Mask" fill="#000000" fill-rule="nonzero" xlink:href="#path-1"></use>
        <g id="color/text_note" mask="url(#mask-2)" fill="#8886A0" fill-rule="nonzero">
            <rect id="base-color" x="0" y="0" width="100" height="100"></rect>
        </g>
    </g>
</svg>