<?xml version="1.0" encoding="UTF-8"?>
<svg width="100px" height="100px" viewBox="0 0 100 100" version="1.1" xmlns="http://www.w3.org/2000/svg" xmlns:xlink="http://www.w3.org/1999/xlink">
    <!-- Generator: Sketch 51.3 (57544) - http://www.bohemiancoding.com/sketch -->
    <title>icon/lbutton</title>
    <desc>Created with Sketch.</desc>
    <defs>
        <path d="M50.1953125,53.90625 C48.0378906,53.90625 46.2890625,52.1574219 46.2890625,50 L46.2890625,3.90625 C46.2890625,1.74882813 48.0378906,0 50.1953125,0 C52.3527344,0 54.1015625,1.74882813 54.1015625,3.90625 L54.1015625,50 C54.1015625,52.1574219 52.3527344,53.90625 50.1953125,53.90625 Z M71.8238281,86.1121094 C73.66875,84.9943359 76.0708984,85.5839844 77.1886719,87.4294922 C78.3064453,89.2746094 77.7166016,91.6765625 75.8714844,92.7943359 C68.0892578,97.5083984 59.1431641,100 50,100 C36.6445312,100 24.0884766,94.7990234 14.6445313,85.3554687 C5.20078125,75.9115234 0,63.3554687 0,50 C0,39.4699219 3.23945312,29.4072266 9.36796875,20.9 C15.3552734,12.5886719 23.6179688,6.38515625 33.2628906,2.95976562 C35.2957031,2.23769531 37.5291016,3.30039062 38.2511719,5.33339844 C38.9732422,7.36640625 37.9105469,9.59960937 35.8775391,10.3216797 C19.0910156,16.2833984 7.8125,32.2289062 7.8125,50 C7.8125,73.2623047 26.7376953,92.1875 50,92.1875 C57.7158203,92.1875 65.2623047,90.0867187 71.8238281,86.1121094 Z M90.7587891,21.1044922 C96.8044922,29.5597656 100,39.5517578 100,50 C100,59.8693359 97.0705078,69.4675781 91.5285156,77.7570312 C90.7755859,78.8835938 89.5380859,79.4925781 88.2777344,79.4925781 C87.5314453,79.4925781 86.7773437,79.2792969 86.1103516,78.8333984 C84.3167969,77.634375 83.8349609,75.2085938 85.0339844,73.4150391 C89.7138672,66.4148438 92.1875,58.3181641 92.1875,50 C92.1875,32.4326172 81.0525391,16.5607422 64.4798828,10.5048828 C62.4535156,9.76445313 61.4111328,7.52167969 62.1515625,5.4953125 C62.8917969,3.46894531 65.1347656,2.42636719 67.1611328,3.16699219 C76.7005859,6.65273438 84.8607422,12.8554688 90.7587891,21.1044922 Z" id="path-1"></path>
    </defs>
    <g id="icon/lbutton" stroke="none" stroke-width="1" fill="none" fill-rule="evenodd">
        <mask id="mask-2" fill="white">
            <use xlink:href="#path-1"></use>
        </mask>
        <use id="Mask" fill="#8886A0" fill-rule="nonzero" xlink:href="#path-1"></use>
        <g id="color/primary/blue0" mask="url(#mask-2)" fill="#8886A0" fill-rule="nonzero">
            <rect id="base-color" x="0" y="0" width="100" height="100"></rect>
        </g>
    </g>
</svg>
