<?xml version="1.0" encoding="UTF-8"?>
<svg width="100px" height="100px" viewBox="0 0 100 100" version="1.1" xmlns="http://www.w3.org/2000/svg" xmlns:xlink="http://www.w3.org/1999/xlink">
    <!-- Generator: Sketch 51.3 (57544) - http://www.bohemiancoding.com/sketch -->
    <title>icon/edit</title>
    <desc>Created with Sketch.</desc>
    <defs>
        <path d="M92.2570226,5.74333588 C88.5535031,2.03962498 83.6295774,0 78.3921282,0 C73.154679,0 68.2305618,2.03962498 64.5270423,5.74314447 L9.72839028,60.5419877 C9.26212466,61.0082533 8.92429263,61.5870658 8.74743325,62.2223431 L0.140277051,93.1453623 C-0.230859665,94.4790811 0.146784864,95.90946 1.12850751,96.8858232 C1.85585126,97.6093389 2.83049188,97.999999 3.82848406,97.999999 C4.17722625,97.999999 4.52903093,97.9521475 4.8741364,97.8541475 L35.7971558,89.0703233 C37.1017807,88.6997608 38.1131714,87.6663585 38.4554057,86.3538859 C38.7976401,85.0414132 38.4198042,83.6458703 37.4621987,82.6852023 L17.9670895,63.1309486 L63.3906634,17.7071834 L80.2837961,34.6003161 L45.5102573,69.2791087 C44.013269,70.7720774 44.0100151,73.1958547 45.5029838,74.692843 C46.9957612,76.1900227 49.4199213,76.1930852 50.9167182,74.7003078 L92.2566398,33.4729333 C95.9603507,29.7694138 97.9999757,24.845488 97.9999757,19.6080389 C97.9999757,14.3705897 95.9603507,9.44666397 92.2570226,5.74333588 Z M27.4466753,83.4833664 L9.34576919,88.624921 L14.4151637,70.4122337 L27.4466753,83.4833664 Z M86.8467336,28.0553708 L85.7049953,29.1940466 L68.8045892,12.2934491 L69.9411595,11.1568788 C72.1984134,8.8994335 75.1996633,7.65624992 78.3921282,7.65624992 C81.584593,7.65624992 84.5856516,8.8994335 86.8430969,11.1570702 C89.1005422,13.4143241 90.3437258,16.4155741 90.3437258,19.6080389 C90.3437258,22.8005037 89.1005422,25.8017536 86.8467336,28.0553708 Z" id="path-1"></path>
    </defs>
    <g id="icon/edit" stroke="none" stroke-width="1" fill="none" fill-rule="evenodd">
        <mask id="mask-2" fill="white">
            <use xlink:href="#path-1"></use>
        </mask>
        <use id="Mask" fill="#000000" fill-rule="nonzero" xlink:href="#path-1"></use>
        <g id="color/primary/blue0" mask="url(#mask-2)" fill="#3322FF" fill-rule="nonzero">
            <rect id="base-color" x="0" y="0" width="100" height="100"></rect>
        </g>
    </g>
</svg>