<?xml version="1.0" encoding="UTF-8"?>
<svg width="100px" height="88px" viewBox="0 0 100 88" version="1.1" xmlns="http://www.w3.org/2000/svg" xmlns:xlink="http://www.w3.org/1999/xlink">
    <!-- Generator: Sketch 52.2 (67145) - http://www.bohemiancoding.com/sketch -->
    <title>Mask</title>
    <desc>Created with Sketch.</desc>
    <defs>
        <path d="M98.8624969,69.5311516 C100.840624,74.5321593 100.212694,80.2118174 97.1822214,84.7239366 C94.1288973,89.2699489 89.2482273,91.877551 83.79158,91.877551 L16.2243098,91.877551 C10.2713729,91.877551 4.98562421,88.7448027 2.0846441,83.4972818 C-0.818679767,78.2452286 -0.682351475,72.0550062 2.44968361,66.9383285 L36.2333187,11.7528525 C39.2051973,6.89845232 44.3544224,4 50.0077496,4 C55.6610768,4 60.8103019,6.89825527 63.7821805,11.7528525 L88.7681486,52.5672545 C89.901939,54.4189614 89.3327977,56.8472453 87.4976392,57.9907437 C85.662676,59.1350304 83.2556418,58.560621 82.1220467,56.7089141 L57.1362739,15.8945121 C55.5977955,13.3816925 52.9333391,11.8815281 50.0079449,11.8815281 C47.0825507,11.8815281 44.417899,13.3816925 42.8796159,15.8945121 L9.0959808,71.079791 C7.47351788,73.7303507 7.40281467,76.9369939 8.90691807,79.6580985 C10.4086777,82.3746709 13.1440326,83.9962199 16.2243098,83.9962199 L83.79158,83.9962199 C86.6154116,83.9962199 89.1390475,82.650151 90.7152213,80.30325 C92.2906138,77.9575313 92.6240127,75.0230183 91.6072146,72.4528562 C90.8074089,70.4314867 91.7833866,68.1389723 93.7869047,67.3320404 C95.7904228,66.5251084 98.0626912,67.5097822 98.8624969,69.5311516 Z M50.5055555,75.7161623 C48.2742982,75.7161623 46.4646465,73.90732 46.4646465,71.6758152 C46.4646465,69.4443103 48.272278,67.635468 50.5035354,67.635468 L50.5055555,67.635468 C52.7368129,67.635468 54.5454545,69.4443103 54.5454545,71.6758152 C54.5454545,73.90732 52.7368129,75.7161623 50.5055555,75.7161623 Z M54.5454545,58.5879355 C54.5454545,60.7955539 52.7365868,62.585034 50.5050505,62.585034 C48.2735142,62.585034 46.4646465,60.7955539 46.4646465,58.5879355 L46.4646465,29.2089212 C46.4646465,27.0013028 48.2735142,25.2118227 50.5050505,25.2118227 C52.7365868,25.2118227 54.5454545,27.0013028 54.5454545,29.2089212 L54.5454545,58.5879355 Z" id="path-1"></path>
    </defs>
    <g id="Symbols" stroke="none" stroke-width="1" fill="none" fill-rule="evenodd">
        <g id="icon/emergency-copy" transform="translate(0.000000, -4.000000)">
            <mask id="mask-2" fill="white">
                <use xlink:href="#path-1"></use>
            </mask>
            <use id="Mask" fill="#E62C1E" fill-rule="nonzero" xlink:href="#path-1"></use>
        </g>
    </g>
</svg>