<?xml version="1.0" encoding="UTF-8"?>
<svg width="100px" height="100px" viewBox="0 0 100 100" version="1.1" xmlns="http://www.w3.org/2000/svg" xmlns:xlink="http://www.w3.org/1999/xlink">
    <!-- Generator: Sketch 51.3 (57544) - http://www.bohemiancoding.com/sketch -->
    <title>icon/expand</title>
    <desc>Created with Sketch.</desc>
    <defs>
        <path d="M37.3324219,31.8082031 C38.8580078,33.3335938 38.8580078,35.8070313 37.3324219,37.3326172 C36.5697266,38.0953125 35.5701172,38.4765625 34.5703125,38.4765625 C33.5705078,38.4765625 32.5708984,38.0953125 31.8082031,37.3326172 L7.8125,13.3369141 L7.8125,28.7109375 C7.8125,30.8683594 6.06367188,32.6171875 3.90625,32.6171875 C1.74882813,32.6171875 0,30.8683594 0,28.7109375 L0,11.71875 C0,5.25703125 5.25703125,0 11.71875,0 L28.7109375,0 C30.8683594,0 32.6171875,1.74882812 32.6171875,3.90625 C32.6171875,6.06367187 30.8683594,7.8125 28.7109375,7.8125 L13.3369141,7.8125 L37.3324219,31.8082031 Z M37.3324219,62.6675781 C38.8580078,64.1929687 38.8580078,66.6664062 37.3324219,68.1919922 L13.3369141,92.1875 L28.7109375,92.1875 C30.8683594,92.1875 32.6171875,93.9363281 32.6171875,96.09375 C32.6171875,98.2511719 30.8683594,100 28.7109375,100 L11.71875,100 C5.25703125,100 0,94.7429687 0,88.28125 L0,71.2890625 C0,69.1316406 1.74882813,67.3828125 3.90625,67.3828125 C6.06367188,67.3828125 7.8125,69.1316406 7.8125,71.2890625 L7.8125,86.6630859 L31.8082031,62.6673828 C33.3335938,61.1419922 35.8068359,61.1421875 37.3324219,62.6675781 Z M96.09375,67.3828125 C98.2511719,67.3828125 100,69.1316406 100,71.2890625 L100,88.28125 C100,94.7429687 94.7429688,100 88.28125,100 L71.2890625,100 C69.1316406,100 67.3828125,98.2511719 67.3828125,96.09375 C67.3828125,93.9363281 69.1316406,92.1875 71.2890625,92.1875 L86.6630859,92.1875 L62.6675781,68.1917969 C61.1419922,66.6664062 61.1421875,64.1929687 62.6675781,62.6673828 C64.1929688,61.1417969 66.6662109,61.1417969 68.1917969,62.6673828 L92.1875,86.6630859 L92.1875,71.2890625 C92.1875,69.1316406 93.9363281,67.3828125 96.09375,67.3828125 Z M88.28125,0 C94.7429688,0 100,5.25703125 100,11.71875 L100,28.7109375 C100,30.8683594 98.2511719,32.6171875 96.09375,32.6171875 C93.9363281,32.6171875 92.1875,30.8683594 92.1875,28.7109375 L92.1875,13.3369141 L68.1917969,37.3326172 C67.4291016,38.0953125 66.4294922,38.4765625 65.4296875,38.4765625 C64.4298828,38.4765625 63.4302734,38.0953125 62.6675781,37.3324219 C61.1419922,35.8070313 61.1419922,33.3335938 62.6675781,31.8080078 L86.6630859,7.8125 L71.2890625,7.8125 C69.1316406,7.8125 67.3828125,6.06367187 67.3828125,3.90625 C67.3828125,1.74882812 69.1316406,0 71.2890625,0 L88.28125,0 Z" id="path-1"></path>
    </defs>
    <g id="icon/expand" stroke="none" stroke-width="1" fill="none" fill-rule="evenodd">
        <mask id="mask-2" fill="white">
            <use xlink:href="#path-1"></use>
        </mask>
        <use id="Mask" fill="#000000" fill-rule="nonzero" xlink:href="#path-1"></use>
        <g id="color/accent/Cyan" mask="url(#mask-2)" fill="#22F0FF" fill-rule="nonzero">
            <rect id="base-color" x="0" y="0" width="100" height="100"></rect>
        </g>
    </g>
</svg>