<svg xmlns="http://www.w3.org/2000/svg" xmlns:xlink="http://www.w3.org/1999/xlink" width="100" height="100" viewBox="0 0 100 100">
    <defs>
        <path id="a" d="M90.18 54.431a3.704 3.704 0 0 0-7.407 0c0 16.647-6.136 26.951-14.543 32.593.968-2.67 1.52-5.77 1.52-9.33 0-13.724-7.826-24.996-18.203-26.218a3.701 3.701 0 0 0-3.99 4.708c.473 1.64.715 3.407.715 5.252 0 5.448-2.154 9.108-5.358 9.108a3.705 3.705 0 0 0 0 7.408c6.148 0 12.765-5.169 12.765-16.516l-.003-.389c3.974 3.227 6.667 9.537 6.667 16.647 0 7.127-3.358 14.725-12.727 14.884-.144.003-.289.007-.434.008-7.693-.068-12.105-5.483-12.105-14.892 0-2.966.456-5.81 1.358-8.452a3.704 3.704 0 1 0-7.011-2.391c-1.164 3.414-1.755 7.061-1.755 10.843 0 3.841.64 7.28 1.8 10.26-9.494-6.009-14.822-17.634-14.822-33.523 0-4.146.37-8.198 1.104-12.118 4.287 5.16 10.127 8.066 16.663 8.066 14.189 0 24.098-13.378 24.098-32.535 0-3.137-.247-6.209-.736-9.185 11.993 4.363 21.62 18.263 24.268 35.907a3.703 3.703 0 1 0 7.325-1.099C85.843 19.976 71.012 2.11 53.302.026a3.705 3.705 0 0 0-3.991 4.709c1.19 4.106 1.793 8.516 1.793 13.109 0 15.03-6.707 25.128-16.69 25.128-6.385 0-11.675-4.224-14.513-11.587-.56-1.454-1.958-2.427-3.528-2.37a3.705 3.705 0 0 0-3.434 2.506c-2.454 7.201-3.7 14.91-3.7 22.91 0 28.108 15.177 45.568 39.609 45.568.108 0 .215-.006.322-.006.054 0 .104.006.157.006.412 0 .824-.015 1.236-.038 10.737-.388 20.397-4.414 27.348-11.45 8.027-8.122 12.27-19.907 12.27-34.08"/>
    </defs>
    <g fill="none" fill-rule="evenodd">
        <mask id="b" fill="#fff">
            <use xlink:href="#a"/>
        </mask>
        <use fill="#FF3122" xlink:href="#a"/>
        <g fill="#FF3122" fill-rule="nonzero" mask="url(#b)">
            <path d="M0 0h100v100H0z"/>
        </g>
    </g>
</svg>
