<?xml version="1.0" encoding="UTF-8"?>
<svg width="100px" height="100px" viewBox="0 0 100 100" version="1.1" xmlns="http://www.w3.org/2000/svg" xmlns:xlink="http://www.w3.org/1999/xlink">
    <!-- Generator: Sketch 51.3 (57544) - http://www.bohemiancoding.com/sketch -->
    <title>icon/floor-stairs</title>
    <desc>Created with Sketch.</desc>
    <defs>
        <path d="M96.09375,68.75 C98.2511719,68.75 100,67.0011719 100,64.84375 L100,3.90625 C100,1.74882813 98.2511719,0 96.09375,0 L76.5625,0 C74.4050781,0 72.65625,1.74882813 72.65625,3.90625 L72.65625,18.1640625 L58.3984375,18.1640625 C56.2410156,18.1640625 54.4921875,19.9128906 54.4921875,22.0703125 L54.4921875,36.328125 L40.234375,36.328125 C38.0769531,36.328125 36.328125,38.0769531 36.328125,40.234375 L36.328125,54.4921875 L22.0703125,54.4921875 C19.9128906,54.4921875 18.1640625,56.2410156 18.1640625,58.3984375 L18.1640625,72.65625 L3.90625,72.65625 C1.74882813,72.65625 0,74.4050781 0,76.5625 L0,96.09375 C0,98.2511719 1.74882813,100 3.90625,100 L84.375,100 C92.990625,100 100,92.990625 100,84.375 C100,82.2175781 98.2511719,80.46875 96.09375,80.46875 C93.9363281,80.46875 92.1875,82.2175781 92.1875,84.375 C92.1875,88.6828125 88.6828125,92.1875 84.375,92.1875 L7.8125,92.1875 L7.8125,80.46875 L22.0703125,80.46875 C24.2277344,80.46875 25.9765625,78.7199219 25.9765625,76.5625 L25.9765625,62.3046875 L40.234375,62.3046875 C42.3917969,62.3046875 44.140625,60.5558594 44.140625,58.3984375 L44.140625,44.140625 L58.3984375,44.140625 C60.5558594,44.140625 62.3046875,42.3917969 62.3046875,40.234375 L62.3046875,25.9765625 L76.5625,25.9765625 C78.7199219,25.9765625 80.46875,24.2277344 80.46875,22.0703125 L80.46875,7.8125 L92.1875,7.8125 L92.1875,64.84375 C92.1875,67.0011719 93.9363281,68.75 96.09375,68.75 Z" id="path-1"></path>
    </defs>
    <g id="icon/floor-stairs" stroke="none" stroke-width="1" fill="none" fill-rule="evenodd">
        <mask id="mask-2" fill="white">
            <use xlink:href="#path-1"></use>
        </mask>
        <use id="Mask" fill="#000000" fill-rule="nonzero" xlink:href="#path-1"></use>
        <g id="color/text_note" mask="url(#mask-2)" fill="#8886A0" fill-rule="nonzero">
            <rect id="base-color" x="0" y="0" width="100" height="100"></rect>
        </g>
    </g>
</svg>