<svg xmlns="http://www.w3.org/2000/svg" xmlns:xlink="http://www.w3.org/1999/xlink" width="100" height="100" viewBox="0 0 100 100">
    <defs>
        <path id="a" d="M26.535 41.724a3.725 3.725 0 0 1-.696-.322 3.634 3.634 0 0 1-1.566-4.266l1.874-5.51a3.624 3.624 0 0 1 4.587-2.262c1.89.643 2.902 2.701 2.261 5.459l-1.873 5.51c-.511.634-1.921 1.583-3.428 1.583-.384 0-.775-.062-1.159-.192zm10.149.873a3.658 3.658 0 0 1-.696-.32 3.632 3.632 0 0 1-1.564-4.268l1.872-5.51a3.591 3.591 0 0 1 1.825-2.08 3.584 3.584 0 0 1 2.763-.18 3.622 3.622 0 0 1 2.26 4.588l-1.872 5.51a3.624 3.624 0 0 1-3.428 2.453c-.384 0-.777-.062-1.16-.193zM98.148 19.48c.897 1.072 1.319 2.465 1.318 3.862l-.004 8.07a3.6 3.6 0 0 1-1.061 2.554 3.642 3.642 0 0 1-2.555 1.058h-.004l-2.721-.001v4.218a6.038 6.038 0 0 1-6.03 6.026h-.002l-21.363-.01-.002 3.76c-.002 6.36-5.158 11.513-11.516 11.513h-.006l-15.433-.007c-1.836.016-3.402 1.152-3.905 2.857L30.5 78.2a7.382 7.382 0 0 1-7.05 5.273H23.4l-16.095-.108a7.355 7.355 0 0 1-3.718-1.032A7.364 7.364 0 0 1 1.456 80.4a7.295 7.295 0 0 1-1.152-6.46l10.132-33.37a3.614 3.614 0 0 1 3.467-2.592c2.414 0 4.15 2.317 3.468 4.633-2.49 8.46-10.127 33.372-10.127 33.372-.013.042-.01.067.016.102.027.034.051.047.095.047l16.093.108a.13.13 0 0 0 .112-.084l4.364-14.82c1.402-4.756 5.795-8.048 10.714-8.048l.146.001h.094l15.326.007h.003c1.329 0 2.565-.601 3.398-1.675.61-.787.886-1.784.886-2.78l.001-5.553c.003-1.934 1.037-3.705 2.84-4.686.74-.403 1.584-.578 2.426-.578h.006l22.122.008.001-3.012-6.347-.003c-1.859-.001-3.526-1.34-3.738-3.185a3.604 3.604 0 0 1 1.035-2.99 3.595 3.595 0 0 1 2.557-1.058h.002l12.834.005.001-3.13-80.115-.034h-.001a1.43 1.43 0 0 0-1.031.427c-.28.28-.427.635-.427 1.03l.03 3.904a3.615 3.615 0 0 1-3.615 3.644h-.035a3.615 3.615 0 0 1-3.616-3.617l.002-3.933c0-3.13 1.645-6.005 4.52-7.644 1.264-.72 2.717-1.044 4.172-1.044h.003l81.652.033c1.692.001 3.272.736 4.378 2.055z"/>
    </defs>
    <g fill="none" fill-rule="evenodd">
        <mask id="b" fill="#fff">
            <use xlink:href="#a"/>
        </mask>
        <use fill="#000" xlink:href="#a"/>
        <g fill="#FF3122" fill-rule="nonzero" mask="url(#b)">
            <path d="M0 0h100v100H0z"/>
        </g>
    </g>
</svg>
