<svg xmlns="http://www.w3.org/2000/svg" xmlns:xlink="http://www.w3.org/1999/xlink" width="100" height="100" viewBox="0 0 100 100">
    <defs>
        <path id="a" d="M90.981 57.73L77.674 50l13.307-7.73a10.67 10.67 0 0 0 4.987-6.537 10.672 10.672 0 0 0-1.095-8.149l-3.14-5.404a10.673 10.673 0 0 0-6.536-4.987 10.674 10.674 0 0 0-8.149 1.095l-13.11 7.618V10.742C63.937 4.82 59.117 0 53.194 0h-6.25c-5.923 0-10.742 4.819-10.742 10.742v15.164l-13.111-7.618a10.676 10.676 0 0 0-8.15-1.095 10.673 10.673 0 0 0-6.535 4.987l-3.14 5.404a10.669 10.669 0 0 0-1.095 8.149 10.673 10.673 0 0 0 4.987 6.536L22.466 50 9.159 57.73a10.672 10.672 0 0 0-4.987 6.538 10.674 10.674 0 0 0 1.095 8.148l3.14 5.404c2.975 5.121 9.563 6.867 14.685 3.892l13.111-7.618v15.164c0 5.923 4.819 10.742 10.742 10.742h6.25c5.924 0 10.742-4.819 10.742-10.742v-21.95a3.906 3.906 0 1 0-7.812 0v21.95a2.933 2.933 0 0 1-2.93 2.93h-6.25a2.933 2.933 0 0 1-2.93-2.93v-21.95a3.908 3.908 0 0 0-5.868-3.378l-18.98 11.027a2.932 2.932 0 0 1-4.004-1.062l-3.14-5.404a2.91 2.91 0 0 1-.299-2.222c.2-.757.684-1.39 1.36-1.783l19.12-11.108a3.907 3.907 0 0 0 0-6.756l-19.12-11.108a2.912 2.912 0 0 1-1.36-1.783 2.915 2.915 0 0 1 .298-2.222l3.14-5.404a2.912 2.912 0 0 1 1.783-1.36 2.911 2.911 0 0 1 2.222.298l18.98 11.027a3.908 3.908 0 0 0 5.869-3.377v-21.95a2.933 2.933 0 0 1 2.93-2.93h6.25a2.933 2.933 0 0 1 2.929 2.93v21.95a3.906 3.906 0 0 0 5.868 3.377l18.98-11.027a2.91 2.91 0 0 1 2.222-.299c.757.201 1.39.684 1.783 1.36l3.14 5.405c.393.676.499 1.466.298 2.222-.2.757-.683 1.39-1.36 1.783l-19.12 11.108a3.906 3.906 0 0 0 0 6.756l19.12 11.108a2.907 2.907 0 0 1 1.36 1.783c.2.756.095 1.545-.299 2.222l-3.14 5.404a2.934 2.934 0 0 1-4.004 1.062 3.907 3.907 0 0 0-3.925 6.755c5.123 2.975 11.71 1.23 14.686-3.892l3.139-5.404a10.672 10.672 0 0 0 1.096-8.149 10.675 10.675 0 0 0-4.988-6.536z"/>
    </defs>
    <g fill="none" fill-rule="evenodd">
        <mask id="b" fill="#fff">
            <use xlink:href="#a"/>
        </mask>
        <use fill="#000" fill-rule="nonzero" xlink:href="#a"/>
        <g fill="#00E536" fill-rule="nonzero" mask="url(#b)">
            <path d="M0 0h100v100H0z"/>
        </g>
    </g>
</svg>
