<svg xmlns="http://www.w3.org/2000/svg" xmlns:xlink="http://www.w3.org/1999/xlink" width="32" height="33" viewBox="0 0 32 33">
    <defs>
        <path id="a" d="M30.824 17.666c.692 0 1.253-.56 1.253-1.253V3.76c0-1.221-.596-2.37-1.595-3.074a3.764 3.764 0 0 0-3.43-.466c-.036.013-.07.027-.105.043L16.91 4.911a16.782 16.782 0 0 1-7 1.564l-4.901.028A5.018 5.018 0 0 0 0 11.515v3.258a5.028 5.028 0 0 0 3.508 4.78v8.714c0 1.02.42 2.016 1.15 2.733a3.704 3.704 0 0 0 2.682 1.075 3.737 3.737 0 0 0 2.61-1.124 3.737 3.737 0 0 0 1.076-2.634V19.78c2.115.16 4.206.719 6.112 1.642l9.778 4.736c.038.019.078.035.118.05a3.762 3.762 0 0 0 5.043-3.533 1.253 1.253 0 1 0-2.506 0c0 .414-.195.788-.534 1.026a1.236 1.236 0 0 1-1.096.169l-9.71-4.703a19.531 19.531 0 0 0-7.205-1.9V8.945a19.255 19.255 0 0 0 6.936-1.759l9.978-4.62c.377-.12.774-.058 1.1.17.337.238.531.612.531 1.025v12.653c0 .692.56 1.253 1.253 1.253zM8.52 28.316c0 .678-.55 1.24-1.228 1.253a1.219 1.219 0 0 1-.878-.358 1.332 1.332 0 0 1-.4-.944v-9.744c0-.66-.511-1.207-1.17-1.25a2.512 2.512 0 0 1-2.338-2.5v-3.258A2.509 2.509 0 0 1 5.012 9.01h.007l3.501-.02v19.328z"/>
    </defs>
    <g fill="none" fill-rule="evenodd" transform="translate(0 .778)">
        <mask id="b" fill="#fff">
            <use xlink:href="#a"/>
        </mask>
        <use fill="#000" fill-rule="nonzero" xlink:href="#a"/>
        <g fill="#22F0FF" fill-rule="nonzero" mask="url(#b)">
            <path d="M0 0h32.077v32.077H0z"/>
        </g>
    </g>
</svg>
