<svg xmlns="http://www.w3.org/2000/svg" xmlns:xlink="http://www.w3.org/1999/xlink" width="24" height="24" viewBox="0 0 24 24">
    <defs>
        <path id="a" d="M23.063 13.218c.517 0 .937-.42.937-.938V2.813c0-.914-.446-1.773-1.193-2.3A2.816 2.816 0 0 0 20.24.166a.94.94 0 0 0-.078.032l-7.51 3.478a12.556 12.556 0 0 1-5.238 1.17l-3.667.02A3.754 3.754 0 0 0 0 8.616v2.438a3.762 3.762 0 0 0 2.625 3.577v6.52c0 .762.314 1.508.86 2.044A2.771 2.771 0 0 0 5.493 24a2.796 2.796 0 0 0 1.952-.842c.52-.529.806-1.229.806-1.97V14.8c1.582.12 3.147.538 4.573 1.229l7.315 3.543a.944.944 0 0 0 .089.038A2.815 2.815 0 0 0 24 16.965a.937.937 0 1 0-1.875 0c0 .31-.146.59-.4.768a.925.925 0 0 1-.82.126l-7.265-3.519a14.613 14.613 0 0 0-5.39-1.42V6.69c1.8-.11 3.541-.552 5.19-1.315l7.465-3.457a.926.926 0 0 1 .822.128.926.926 0 0 1 .398.766v9.467c0 .518.42.938.938.938zM6.375 21.187a.942.942 0 0 1-.919.937.912.912 0 0 1-.657-.268.997.997 0 0 1-.299-.707v-7.29a.938.938 0 0 0-.875-.936 1.88 1.88 0 0 1-1.75-1.87V8.616c0-1.034.841-1.875 1.875-1.875h.005l2.62-.016v14.462z"/>
    </defs>
    <g fill="none" fill-rule="evenodd">
        <mask id="b" fill="#fff">
            <use xlink:href="#a"/>
        </mask>
        <use fill="#000" fill-rule="nonzero" xlink:href="#a"/>
        <g fill="#22ff9f" fill-rule="nonzero" mask="url(#b)">
            <path d="M0 0h24v24H0z"/>
        </g>
    </g>
</svg>
