<svg xmlns="http://www.w3.org/2000/svg" xmlns:xlink="http://www.w3.org/1999/xlink" width="48" height="49" viewBox="0 0 48 49">
    <defs>
        <path id="a" d="M42.375 17.438A5.631 5.631 0 0 1 48 23.063v1.875a5.631 5.631 0 0 1-5.625 5.625h-.944a.627.627 0 0 0-.574.398l-.014.035a.628.628 0 0 0 .123.69l.668.667a5.588 5.588 0 0 1 1.647 3.977 5.588 5.588 0 0 1-1.647 3.978l-1.326 1.325a5.588 5.588 0 0 1-3.978 1.648 5.588 5.588 0 0 1-3.977-1.648l-.668-.667a.629.629 0 0 0-.69-.123l-.036.015a.625.625 0 0 0-.396.573v.944A5.631 5.631 0 0 1 24.938 48h-1.875a5.631 5.631 0 0 1-5.625-5.625v-.944a.626.626 0 0 0-.399-.574l-.035-.015a.628.628 0 0 0-.69.124l-.667.667a5.588 5.588 0 0 1-3.977 1.648 5.588 5.588 0 0 1-3.978-1.648l-1.326-1.325A5.588 5.588 0 0 1 4.72 36.33c0-1.502.585-2.915 1.647-3.977l.668-.668a.628.628 0 0 0 .123-.69l-.017-.04a.624.624 0 0 0-.57-.393h-.945A5.631 5.631 0 0 1 0 24.937v-1.875a5.631 5.631 0 0 1 5.625-5.625h.944a.627.627 0 0 0 .574-.398l.011-.028a.632.632 0 0 0-.12-.696l-.667-.668a5.631 5.631 0 0 1 0-7.955l1.325-1.325a5.588 5.588 0 0 1 3.978-1.648c1.502 0 2.915.585 3.977 1.648l.668.667a.628.628 0 0 0 .69.123l.036-.015c.24-.1.397-.324.397-.573v-.944A5.631 5.631 0 0 1 23.063 0h1.875a5.631 5.631 0 0 1 5.625 5.625v.944c0 .249.156.474.398.574l.035.015c.243.1.513.052.69-.124l.667-.667a5.588 5.588 0 0 1 3.977-1.648c1.503 0 2.915.585 3.978 1.648l1.326 1.325a5.631 5.631 0 0 1 0 7.955l-.668.668a.629.629 0 0 0-.123.69l.017.04a.624.624 0 0 0 .57.393h.945zM24 13.125c5.997 0 10.875 4.879 10.875 10.875 0 1.04-.147 2.068-.436 3.058a1.875 1.875 0 1 1-3.6-1.053 7.133 7.133 0 0 0-6.84-9.13A7.133 7.133 0 0 0 16.876 24a7.133 7.133 0 0 0 9.278 6.794 1.875 1.875 0 0 1 1.132 3.576 10.87 10.87 0 0 1-3.285.505c-5.997 0-10.875-4.879-10.875-10.875S18.003 13.125 24 13.125zm20.25 11.813v-1.875a1.877 1.877 0 0 0-1.875-1.875h-.944a4.364 4.364 0 0 1-4.04-2.718l-.014-.034a4.364 4.364 0 0 1 .937-4.773l.668-.667a1.877 1.877 0 0 0 0-2.652l-1.326-1.326a1.863 1.863 0 0 0-1.326-.55c-.5 0-.971.196-1.326.55l-.667.668a4.367 4.367 0 0 1-4.78.934l-.025-.01a4.365 4.365 0 0 1-2.72-4.04v-.945a1.877 1.877 0 0 0-1.875-1.875h-1.875a1.877 1.877 0 0 0-1.875 1.875v.944a4.364 4.364 0 0 1-2.717 4.04l-.026.01a4.367 4.367 0 0 1-4.78-.933l-.668-.668a1.862 1.862 0 0 0-1.326-.549c-.501 0-.972.195-1.326.55l-1.326 1.325a1.877 1.877 0 0 0 0 2.652l.668.667a4.366 4.366 0 0 1 .934 4.78l-.009.021a4.367 4.367 0 0 1-4.042 2.724h-.944a1.877 1.877 0 0 0-1.875 1.875v1.875c0 1.033.841 1.875 1.875 1.875h.944a4.364 4.364 0 0 1 4.04 2.717l.012.03a4.366 4.366 0 0 1-.935 4.777l-.668.667c-.354.354-.549.825-.549 1.326 0 .501.195.972.55 1.326l1.325 1.326c.354.354.825.549 1.326.549.5 0 .971-.195 1.326-.55l.667-.667a4.346 4.346 0 0 1 3.08-1.275c.57 0 1.148.111 1.7.34l.025.011a4.365 4.365 0 0 1 2.72 4.04v.945c0 1.034.84 1.875 1.875 1.875h1.875a1.877 1.877 0 0 0 1.875-1.875v-.944a4.364 4.364 0 0 1 2.717-4.04l.026-.01a4.367 4.367 0 0 1 4.78.933l.668.668c.354.354.825.549 1.326.549.501 0 .972-.195 1.326-.55l1.326-1.325c.354-.354.549-.825.549-1.326 0-.5-.195-.972-.55-1.326l-.667-.667a4.367 4.367 0 0 1-.935-4.778l.012-.03a4.364 4.364 0 0 1 4.04-2.716h.944a1.877 1.877 0 0 0 1.875-1.875z"/>
    </defs>
    <g fill="none" fill-rule="evenodd" transform="translate(0 .219)">
        <mask id="b" fill="#fff">
            <use xlink:href="#a"/>
        </mask>
        <use fill="#3322FF" fill-rule="nonzero" xlink:href="#a"/>
        <g fill="#3322FF" fill-rule="nonzero" mask="url(#b)">
            <path d="M0 0h48v48H0z"/>
        </g>
    </g>
</svg>
