<svg xmlns="http://www.w3.org/2000/svg" xmlns:xlink="http://www.w3.org/1999/xlink" width="100" height="100" viewBox="0 0 100 100">
    <defs>
        <path id="a" d="M85.696 77.463c4.178 2.19 6.296 4.947 6.296 8.19 0 4.847-4.72 8.598-14.028 11.15C70.444 98.865 60.512 100 50 100c-10.512 0-20.443-1.135-27.964-3.197C12.728 94.25 8.008 90.5 8.008 85.653c0-3.243 2.118-6 6.296-8.19 3.005-1.577 7.13-2.905 12.262-3.947a3.907 3.907 0 0 1 1.556 7.656c-7.916 1.608-11.161 3.539-12.098 4.475.69.69 2.996 2.425 9.77 4.056C32.45 91.305 41.047 92.187 50 92.187c8.954 0 17.55-.882 24.205-2.484 6.775-1.63 9.081-3.365 9.77-4.056-.935-.936-4.18-2.867-12.096-4.475a3.906 3.906 0 0 1 1.555-7.656c5.132 1.042 9.257 2.37 12.262 3.947zm-38.998 5.093C43.13 76.91 38.517 71.96 34.055 67.17c-8.766-9.408-17.83-19.136-17.844-33.573.01-9.055 3.524-17.515 9.894-23.83C32.457 3.467 40.944 0 50 0c9.062 0 17.579 3.464 23.98 9.755 6.441 6.329 9.994 14.793 10.004 23.834-.013 14.423-9.122 24.133-17.93 33.524-4.51 4.807-9.17 9.777-12.752 15.443a3.906 3.906 0 0 1-6.604 0zm5.777-30.573c-.815.11-1.648.165-2.475.165-10.123 0-18.36-8.236-18.36-18.359 0-10.123 8.237-18.36 18.36-18.36s18.36 8.237 18.36 18.36c0 .996-.081 1.996-.24 2.973a3.905 3.905 0 1 1-7.711-1.258c.091-.562.138-1.139.138-1.715 0-5.815-4.732-10.547-10.547-10.547-5.816 0-10.547 4.732-10.547 10.547 0 5.816 4.731 10.547 10.547 10.547.478 0 .96-.032 1.43-.096a3.907 3.907 0 0 1 1.045 7.743zM50 7.813c-14.55 0-25.96 11.326-25.977 25.785.012 11.358 7.304 19.185 15.748 28.247 3.466 3.72 7.019 7.533 10.231 11.785 3.244-4.282 6.843-8.118 10.353-11.861 8.481-9.042 15.806-16.851 15.817-28.179C76.155 19.38 64.415 7.812 50 7.812z"/>
    </defs>
    <g fill="none" fill-rule="evenodd">
        <mask id="b" fill="#fff">
            <use xlink:href="#a"/>
        </mask>
        <use fill="#8886A0" fill-rule="nonzero" xlink:href="#a"/>
        <g fill="#8886A0" fill-rule="nonzero" mask="url(#b)">
            <path d="M0 0h100v100H0z"/>
        </g>
    </g>
</svg>
