<svg xmlns="http://www.w3.org/2000/svg" xmlns:xlink="http://www.w3.org/1999/xlink" width="48" height="48" viewBox="0 0 48 48">
    <defs>
        <path id="a" d="M42.976 35.689a1.875 1.875 0 0 1 .385 2.623 24.169 24.169 0 0 1-1.28 1.578 1.87 1.87 0 0 1-2.647.163 1.875 1.875 0 0 1-.163-2.647c.377-.427.741-.875 1.081-1.332a1.875 1.875 0 0 1 2.624-.385zm3.135-8.793a1.875 1.875 0 0 1 1.434 2.23c-.144.66-.318 1.322-.517 1.967a1.876 1.876 0 0 1-3.583-1.107c.168-.543.314-1.1.435-1.657a1.875 1.875 0 0 1 2.231-1.433zm-12.16 14.798a1.875 1.875 0 0 1 1.828 3.274c-.59.33-1.202.637-1.817.915a1.875 1.875 0 0 1-1.543-3.418 20.317 20.317 0 0 0 1.532-.771zM22.125 9a1.875 1.875 0 1 1 3.75 0v15c0 .497-.198.974-.55 1.326l-7.424 7.424a1.87 1.87 0 0 1-1.326.55 1.875 1.875 0 0 1-1.326-3.2l6.876-6.877V9zm24-4.969c1.036 0 1.875.84 1.875 1.875v5.532a5.999 5.999 0 0 1-2.712 5.015 5.964 5.964 0 0 1-3.288.985h-5.724a1.875 1.875 0 1 1 0-3.75h5.155A20.298 20.298 0 0 0 24 3.75C12.834 3.75 3.75 12.834 3.75 24S12.834 44.25 24 44.25l.047.002.047-.002c.572 0 1.149-.024 1.715-.071a1.874 1.874 0 1 1 .313 3.736 24.44 24.44 0 0 1-2.028.085l-.047-.002L24 48a23.844 23.844 0 0 1-16.97-7.03A23.844 23.844 0 0 1 0 24c0-6.41 2.496-12.438 7.03-16.97A23.844 23.844 0 0 1 24 0c8.264 0 15.886 4.268 20.25 11.113V5.906c0-1.035.84-1.875 1.875-1.875z"/>
    </defs>
    <g fill="none" fill-rule="evenodd">
        <mask id="b" fill="#fff">
            <use xlink:href="#a"/>
        </mask>
        <use fill="#8886A0" fill-rule="nonzero" xlink:href="#a"/>
        <g fill="#8886A0" fill-rule="nonzero" mask="url(#b)">
            <path d="M0 0h48v48H0z"/>
        </g>
    </g>
</svg>
