<svg xmlns="http://www.w3.org/2000/svg" xmlns:xlink="http://www.w3.org/1999/xlink" width="100" height="100" viewBox="0 0 100 100">
    <defs>
        <path id="a" d="M91.414 17.908a3.907 3.907 0 0 1 2.336 3.576v30.86c0 8.597-2.446 17.256-7.072 25.042a3.906 3.906 0 1 1-6.716-3.991c3.91-6.579 5.975-13.858 5.975-21.051V24.036L49.813 8.176l-35.75 15.85v28.318c0 20.852 17.129 39.843 35.937 39.843 6.648 0 13.147-2.172 18.795-6.283a3.906 3.906 0 0 1 4.597 6.317C66.4 97.31 58.311 100 50 100c-5.935 0-11.74-1.397-17.255-4.154-5.149-2.573-9.808-6.204-13.85-10.794C10.859 75.928 6.25 64.006 6.25 52.344v-30.86c0-1.545.91-2.945 2.323-3.57L48.221.334A3.906 3.906 0 0 1 51.375.33l40.04 17.579zM68.63 30.762a3.906 3.906 0 1 1 6.1 4.882L50.233 66.25a7.537 7.537 0 0 1-5.809 2.695 7.53 7.53 0 0 1-5.225-2.092l-.017-.016-13.766-13.242a3.906 3.906 0 0 1 5.416-5.63l13.577 13.06 24.22-30.264z"/>
    </defs>
    <g fill="none" fill-rule="evenodd">
        <mask id="b" fill="#fff">
            <use xlink:href="#a"/>
        </mask>
        <use fill="#3322FF" fill-rule="nonzero" xlink:href="#a"/>
        <g fill="#3322FF" fill-rule="nonzero" mask="url(#b)">
            <path d="M0 0h100v100H0z"/>
        </g>
    </g>
</svg>
