<?xml version="1.0" encoding="UTF-8"?>
<svg width="14px" height="25px" viewBox="0 0 14 25" version="1.1" xmlns="http://www.w3.org/2000/svg" xmlns:xlink="http://www.w3.org/1999/xlink">
    <!-- Generator: Sketch 51.3 (57544) - http://www.bohemiancoding.com/sketch -->
    <title>left chevron</title>
    <desc>Created with Sketch.</desc>
    <defs></defs>
    <g id="playground" stroke="none" stroke-width="1" fill="none" fill-rule="evenodd">
        <g id="Artboard" transform="translate(-56.000000, -68.000000)" fill="#FFFFFF" fill-rule="nonzero">
            <path d="M74.7261099,74.2752857 C74.3603442,73.90877 73.766813,73.9082075 73.4002505,74.2739263 L63.6629067,83.9910669 C63.2973286,84.3565982 62.7026255,84.3565513 62.3363911,83.9903638 L52.5997505,74.2739263 C52.2332349,73.9081607 51.6397036,73.90877 51.2738911,74.2752857 C50.9081724,74.6418013 50.9087817,75.2353794 51.2752505,75.6010982 L61.0112349,85.3168794 C61.5597192,85.86527 62.2799536,86.139395 63.0002817,86.139395 C63.720188,86.139395 64.4402349,85.8653638 64.9880161,85.3175357 L74.7247505,75.6010982 C75.0912192,75.2353794 75.0918286,74.6418013 74.7261099,74.2752857 Z" id="left-chevron" transform="translate(63.000000, 80.069698) scale(-1, 1) rotate(-90.000000) translate(-63.000000, -80.069698) "></path>
        </g>
    </g>
</svg>