<svg xmlns="http://www.w3.org/2000/svg" xmlns:xlink="http://www.w3.org/1999/xlink" width="100" height="100" viewBox="0 0 100 100">
    <defs>
        <path id="a" d="M77.028 10.99C69.88 3.896 60.425 0 50.372 0h-.519C39.728 0 30.19 3.936 22.973 11.1c-7.194 7.142-11.157 16.605-11.157 26.648 0 15.107 8.673 23.247 15.006 29.19 4.38 4.11 7.065 6.784 7.065 9.82V88.28c0 6.462 5.257 11.719 11.718 11.719h8.79c6.461 0 11.718-5.257 11.718-11.719V76.367c0-.155-.009-.308-.026-.459.385-2.303 2.333-4.549 5.623-7.679a3.906 3.906 0 1 0-5.384-5.66c-3.227 3.069-6.205 6.183-7.476 10.087H53.81V39.51l3.906-3.907 5.05 5.05a3.894 3.894 0 0 0 2.762 1.145 3.906 3.906 0 0 0 2.762-6.668l-7.812-7.813a3.906 3.906 0 0 0-5.524 0l-5.05 5.05-5.051-5.05a3.906 3.906 0 0 0-5.524 0l-7.813 7.813a3.906 3.906 0 1 0 5.524 5.524l5.05-5.05 3.907 3.906v33.147h-4.942c-1.438-4.426-5.08-7.843-8.885-11.415-6.165-5.785-12.54-11.768-12.54-23.494 0-7.944 3.142-15.439 8.849-21.103 5.743-5.7 13.326-8.831 21.376-8.831a29.962 29.962 0 0 1 .288 0h.228c7.978 0 15.482 3.092 21.154 8.722 5.51 5.469 8.629 12.683 8.836 20.39-.057.266-.086.54-.086.823 0 4.518-.908 8.443-2.775 12a3.906 3.906 0 0 0 6.917 3.63c2.34-4.455 3.54-9.278 3.66-14.715.07-.294.108-.6.108-.915 0-10.114-3.962-19.617-11.156-26.758zM41.699 80.469h16.602v7.812a3.91 3.91 0 0 1-3.906 3.906h-8.79a3.91 3.91 0 0 1-3.906-3.906V80.47z"/>
    </defs>
    <g fill="none" fill-rule="evenodd">
        <mask id="b" fill="#fff">
            <use xlink:href="#a"/>
        </mask>
        <use fill="#000" fill-rule="nonzero" xlink:href="#a"/>
        <g fill="#FFF" fill-rule="nonzero" mask="url(#b)">
            <path d="M0 0h100v100H0z"/>
        </g>
    </g>
</svg>
