<svg xmlns="http://www.w3.org/2000/svg" xmlns:xlink="http://www.w3.org/1999/xlink" width="100" height="100" viewBox="0 0 100 100">
    <defs>
        <path id="a" d="M78.296 11.712c7.56 7.552 11.73 17.595 11.742 28.28-.007 7.792-2.17 15.096-6.61 22.336-3.844 6.269-8.839 11.739-14.126 17.53-5.185 5.677-10.547 11.549-14.828 18.323A3.906 3.906 0 0 1 51.172 100h-2.344a3.907 3.907 0 0 1-3.302-1.82c-4.281-6.773-9.643-12.644-14.828-18.322-5.287-5.791-10.282-11.261-14.127-17.53-4.44-7.24-6.602-14.543-6.61-22.327.013-10.694 4.183-20.737 11.743-28.29C29.264 4.16 39.314 0 50 0c10.687 0 20.736 4.16 28.296 11.712zM50 15.625c13.462 0 24.414 10.952 24.414 24.414 0 2.39-.345 4.752-1.026 7.022a3.906 3.906 0 0 1-7.483-2.244c.462-1.542.697-3.15.697-4.778 0-9.154-7.448-16.602-16.602-16.602S33.398 30.886 33.398 40.04 40.846 56.641 50 56.641c1.55 0 3.083-.213 4.557-.632a3.906 3.906 0 1 1 2.139 7.513c-2.17.618-4.422.931-6.696.931-13.462 0-24.414-10.952-24.414-24.414 0-13.462 10.952-24.414 24.414-24.414zM63.532 74.59c10.024-10.977 18.68-20.457 18.694-34.597-.02-17.74-14.477-32.18-32.226-32.18S17.794 22.252 17.774 40c.014 14.132 8.67 23.612 18.694 34.589C41.078 79.638 45.82 84.833 50 90.808c4.179-5.975 8.922-11.17 13.532-16.218z"/>
    </defs>
    <g fill="none" fill-rule="evenodd">
        <mask id="b" fill="#fff">
            <use xlink:href="#a"/>
        </mask>
        <use fill="#3922FF" fill-rule="nonzero" xlink:href="#a"/>
        <g fill="#3922FF" fill-rule="nonzero" mask="url(#b)">
            <path d="M0 0h100v100H0z"/>
        </g>
    </g>
</svg>
