<?xml version="1.0" encoding="UTF-8"?>
<svg width="100px" height="100px" viewBox="0 0 100 100" version="1.1" xmlns="http://www.w3.org/2000/svg" xmlns:xlink="http://www.w3.org/1999/xlink">
    <!-- Generator: Sketch 51.3 (57544) - http://www.bohemiancoding.com/sketch -->
    <title>icon/message</title>
    <desc>Created with Sketch.</desc>
    <defs>
        <path d="M84.9120533,13.4526316 C75.5025016,4.84035088 63.0147823,0.0974658869 49.750065,0.0974658869 C36.4853476,0.0974658869 23.9978233,4.84035088 14.5882716,13.4526316 C5.08261859,22.1526316 -0.152469125,33.7475634 -0.152469125,46.1013645 C-0.152469125,55.7358674 2.9980182,64.8641326 8.98398312,72.645614 L0.131741401,94.5424951 C-0.462995441,96.0136452 -0.10685509,97.6984405 1.03252113,98.802924 C1.77521119,99.522807 2.75337883,99.9025341 3.74714101,99.9025341 C4.27794023,99.9025341 4.81322288,99.794152 5.3188759,99.571345 L30.3980182,88.5159844 C36.5268681,90.8984405 43.0290124,92.1052632 49.750065,92.1052632 C58.1627356,92.1052632 66.4806693,90.1391813 73.804451,86.4194932 C75.7241391,85.4444444 76.490026,83.0978558 75.5149773,81.1779727 C74.5399285,79.2582846 72.1933398,78.4925926 70.2734568,79.4674464 C64.0383691,82.6341131 56.9416829,84.3079922 49.750065,84.3079922 C43.5019168,84.3079922 37.4853476,83.0927875 31.8676088,80.6961014 C30.8754061,80.2727096 29.7522092,80.2795322 28.7650747,80.7146199 L10.9590318,88.5637427 L17.0732619,73.4391813 C17.6177063,72.0923977 17.3683886,70.554386 16.4258934,69.4489279 C10.6812541,62.7095517 7.64480183,54.6360624 7.64480183,46.1013645 C7.64480183,25.0341131 26.5331059,7.89473684 49.750065,7.89473684 C72.9670241,7.89473684 91.8553281,25.0341131 91.8553281,46.1013645 C91.8553281,53.3559454 89.604256,60.414425 85.3449968,66.5134503 C84.1122482,68.2787524 84.5438272,70.7091618 86.3093242,71.9419103 C88.0742365,73.1748538 90.5052307,72.742885 91.7377843,70.9775828 C96.915757,63.562963 99.6525991,54.9608187 99.6525991,46.1013645 C99.6525991,33.7475634 94.4177063,22.1526316 84.9120533,13.4526316 Z" id="path-1"></path>
    </defs>
    <g id="icon/message" stroke="none" stroke-width="1" fill="none" fill-rule="evenodd">
        <mask id="mask-2" fill="white">
            <use xlink:href="#path-1"></use>
        </mask>
        <use id="Mask" fill="#000000" fill-rule="nonzero" xlink:href="#path-1"></use>
        <g id="color/text_note" mask="url(#mask-2)" fill="#003CF8" fill-rule="nonzero">
            <g transform="translate(-0.250000, 0.000000)" id="base-color">
                <rect x="0" y="0" width="100" height="100"></rect>
            </g>
        </g>
    </g>
</svg>
