<svg xmlns="http://www.w3.org/2000/svg" xmlns:xlink="http://www.w3.org/1999/xlink" width="100" height="100" viewBox="0 0 100 100">
    <defs>
        <path id="a" d="M91.297 74.396a3.906 3.906 0 1 0-7.679 1.44 3.864 3.864 0 0 1-.835 3.222 3.852 3.852 0 0 1-3.004 1.41H20.484a3.852 3.852 0 0 1-3.004-1.41 3.864 3.864 0 0 1-.835-3.223c1.108-5.912 3.331-9.801 5.481-13.562 2.611-4.567 5.311-9.29 5.311-16.57v-5.86c0-12.317 10.013-22.474 22.325-22.653h.739c12.27.178 22.249 10.335 22.249 22.654v5.86c0 6.195 2.027 10.459 3.927 13.968a3.905 3.905 0 1 0 6.87-3.718c-1.89-3.493-2.984-6.29-2.984-10.25v-5.86c0-8.04-3.114-15.632-8.769-21.38-4.846-4.926-11.068-8-17.794-8.849V3.906a3.906 3.906 0 1 0-7.813 0v5.72C31.255 11.565 19.625 24.45 19.625 39.845v5.86c0 5.204-1.89 8.508-4.281 12.692-2.356 4.122-5.027 8.793-6.378 16a11.695 11.695 0 0 0 2.503 9.652 11.682 11.682 0 0 0 9.015 4.233H38.45c0 6.462 5.257 11.719 11.72 11.719 6.46 0 11.718-5.257 11.718-11.719h17.891c3.496 0 6.782-1.543 9.015-4.233a11.695 11.695 0 0 0 2.503-9.652zM50.169 92.187a3.91 3.91 0 0 1-3.906-3.906h7.813a3.91 3.91 0 0 1-3.907 3.906zM21.26 8.808a3.906 3.906 0 0 1 .304 5.516 38.21 38.21 0 0 0-9.75 25.52 3.906 3.906 0 1 1-7.813 0 46.014 46.014 0 0 1 11.743-30.73 3.906 3.906 0 0 1 5.515-.306zm63.186.305a46.014 46.014 0 0 1 11.743 30.732 3.906 3.906 0 1 1-7.813 0 38.211 38.211 0 0 0-9.751-25.521 3.906 3.906 0 0 1 5.82-5.21z"/>
    </defs>
    <g fill="none" fill-rule="evenodd">
        <mask id="b" fill="#fff">
            <use xlink:href="#a"/>
        </mask>
        <use fill="#000" fill-rule="nonzero" xlink:href="#a"/>
        <g fill="#FFF" fill-rule="nonzero" mask="url(#b)">
            <path d="M.094 0h100v100h-100z"/>
        </g>
    </g>
</svg>
