<?xml version="1.0" encoding="UTF-8"?>
<svg width="100px" height="100px" viewBox="0 0 100 100" version="1.1" xmlns="http://www.w3.org/2000/svg" xmlns:xlink="http://www.w3.org/1999/xlink">
    <!-- Generator: Sketch 51.3 (57544) - http://www.bohemiancoding.com/sketch -->
    <title>icon/now</title>
    <desc>Created with Sketch.</desc>
    <defs>
        <path d="M49.8461995,100 C43.9990867,100 38.1529694,98.9576756 32.5377902,96.8660581 C20.0979932,92.2308506 10.1756201,82.9584444 4.59727148,70.7551854 C-0.980081694,58.5529219 -1.50068775,44.9817988 3.13400017,32.540607 C7.76769266,20.1004108 17.0390593,10.1769253 29.2399549,4.59795125 C41.4428413,-0.980027245 55.0124431,-1.50069167 67.4502492,3.13352034 C87.0760025,10.4457195 100.156852,29.4315535 99.9985795,50.376599 C99.9846436,52.4124665 98.3292557,54.053107 96.2966026,54.0541025 C96.2866484,54.0541025 96.2766941,54.053107 96.2667399,54.053107 C94.2221418,54.038174 92.5757127,52.366672 92.5916394,50.320849 C92.7250261,32.4778884 81.5822648,16.3054342 64.8641412,10.0773719 C54.2808074,6.13306509 42.7219595,6.58105551 32.3207881,11.3367227 C21.9186212,16.0923899 14.018947,24.5414892 10.0760778,35.1270051 C6.13320865,45.7135165 6.58015343,57.2726648 11.3352875,67.6750024 C16.0904215,78.0773399 24.5385737,85.9788954 35.1238983,89.9222066 C45.7092229,93.8665134 57.2650846,93.420514 67.6682468,88.6628558 C78.0694182,83.9071886 85.9690925,75.4590848 89.9119616,64.8725734 C90.6246843,62.9551744 92.7598659,61.9805464 94.6760545,62.6933489 C96.5922431,63.4081425 97.5677573,65.5415724 96.8540393,67.4579759 C92.2203468,79.8991676 82.9489801,89.8226532 70.7480845,95.4016272 C64.0548625,98.4618996 56.9495356,100 49.8461995,100 Z M50.163142,83.3189274 C47.4486244,83.3189274 44.7122075,82.9864189 42.0016716,82.3144333 C33.3195952,80.1630838 26.0211562,74.8011362 21.4501753,67.2171562 C14.240329,55.2548164 15.2904999,39.9156244 24.0641552,29.0483724 C25.4458019,27.337049 27.9532716,27.0712413 29.6634077,28.4520474 C31.3745393,29.8338489 31.6413126,32.3406042 30.2596659,34.0519276 C23.5813753,42.3238218 22.7820509,53.9994477 28.269816,63.1046041 C31.7428457,68.867752 37.3002904,72.9444648 43.9178603,74.5851053 C50.5334393,76.2217636 57.3510891,75.2142829 63.1125955,71.7408639 C68.8750972,68.2674448 72.9513531,62.7103725 74.5918096,56.0920607 C76.2312707,49.4747445 75.2209167,42.6563303 71.7478871,36.8941779 C68.2748574,31.1320256 62.7184081,27.0543173 56.1008382,25.4146723 C49.4832684,23.7760229 42.6676094,24.7844991 36.9051076,28.2579182 C35.0227633,29.3938228 32.575019,28.7885379 31.4392418,26.9039916 C30.3034645,25.0204407 30.9106723,22.572422 32.794012,21.4375129 C40.3761464,16.8660196 49.333955,15.5329992 58.0160314,17.6843487 C66.6981079,19.8356983 73.9975423,25.1986414 78.5685231,32.7826214 C83.1385086,40.3666015 84.4713795,49.3254143 82.3202712,58.0074687 C80.1691628,66.6905185 74.8078163,73.9907713 67.2246865,78.5622647 C62.0086717,81.7061619 56.1416505,83.3189274 50.163142,83.3189274 Z" id="path-1"></path>
    </defs>
    <g id="icon/now" stroke="none" stroke-width="1" fill="none" fill-rule="evenodd">
        <g id="icon-color">
            <mask id="mask-2" fill="white">
                <use xlink:href="#path-1"></use>
            </mask>
            <use id="Mask" fill="#000000" xlink:href="#path-1"></use>
            <g id="color/text_note" mask="url(#mask-2)" fill="#8886A0" fill-rule="nonzero">
                <rect id="base-color" x="0" y="0" width="100" height="100"></rect>
            </g>
        </g>
    </g>
</svg>