<svg xmlns="http://www.w3.org/2000/svg" xmlns:xlink="http://www.w3.org/1999/xlink" width="100" height="100" viewBox="0 0 100 100">
    <defs>
        <path id="a" d="M75.975 81.738a3.906 3.906 0 0 1-3.907-3.906V63.184a3.906 3.906 0 1 1 7.813 0v14.648a3.906 3.906 0 0 1-3.906 3.906zm.002 3.907a3.906 3.906 0 1 1 .004 7.812 3.906 3.906 0 0 1-.006-7.812h.002zm8.398-79.102c8.616 0 15.625 7.01 15.625 15.625V39.16a3.906 3.906 0 1 1-7.813 0V22.996L58.252 44.098A15.6 15.6 0 0 1 50 46.472a15.6 15.6 0 0 1-8.251-2.374L7.812 22.996v44.29c0 4.307 3.505 7.812 7.813 7.812h25.586a3.906 3.906 0 1 1 0 7.812H15.625C7.009 82.91 0 75.9 0 67.285V22.168C0 13.552 7.01 6.543 15.625 6.543h68.75zm-30.25 30.92l34.801-21.64a7.768 7.768 0 0 0-4.551-1.468h-68.75a7.768 7.768 0 0 0-4.551 1.469l34.8 21.64a7.764 7.764 0 0 0 8.251 0zm32.946 9.091L98.856 58.34A3.906 3.906 0 0 1 100 61.1v16.665c0 1.03-.407 2.02-1.133 2.751l-7.812 7.878a3.906 3.906 0 0 1-5.547-5.501l6.68-6.736v-13.44l-9.497-9.495h-13.43l-9.495 9.496v13.41l6.84 6.731a3.906 3.906 0 1 1-5.478 5.57L53.12 80.55a3.907 3.907 0 0 1-1.167-2.784V61.1c0-1.036.411-2.03 1.144-2.762L64.88 46.554a3.906 3.906 0 0 1 2.763-1.144h16.665c1.036 0 2.03.412 2.762 1.144z"/>
    </defs>
    <g fill="none" fill-rule="evenodd">
        <mask id="b" fill="#fff">
            <use xlink:href="#a"/>
        </mask>
        <use fill="#FF3122" fill-rule="nonzero" xlink:href="#a"/>
        <g fill="#FF3122" fill-rule="nonzero" mask="url(#b)">
            <path d="M0 0h100v100H0z"/>
        </g>
    </g>
</svg>
