<svg xmlns="http://www.w3.org/2000/svg" xmlns:xlink="http://www.w3.org/1999/xlink" width="48" height="49" viewBox="0 0 48 49">
    <defs>
        <path id="a" d="M27.469 21.938a2.812 2.812 0 1 1 0-5.625 2.812 2.812 0 0 1 0 5.625zm19.038.226a1.875 1.875 0 0 1 0 3.672l-5.603 1.167c-.28.058-.545.168-.785.324a1.875 1.875 0 0 1-2.051-3.139c.101-.066.204-.129.308-.188a6.093 6.093 0 0 1-2.803-3.522 12.033 12.033 0 0 0-.897-2.165 6.1 6.1 0 0 1-.51-4.478 6.102 6.102 0 0 1-4.479-.51 12.04 12.04 0 0 0-2.165-.898A6.094 6.094 0 0 1 24 9.624a6.094 6.094 0 0 1-3.522 2.803c-.747.227-1.475.53-2.165.897a6.101 6.101 0 0 1-4.478.51 6.1 6.1 0 0 1-.51 4.479 12.04 12.04 0 0 0-.898 2.165A6.094 6.094 0 0 1 9.624 24a6.094 6.094 0 0 1 2.803 3.522c.227.747.53 1.475.897 2.165a6.1 6.1 0 0 1 .51 4.478 6.1 6.1 0 0 1 4.479.51c.69.369 1.418.67 2.165.898A6.094 6.094 0 0 1 24 38.376a6.094 6.094 0 0 1 3.522-2.803 12.05 12.05 0 0 0 2.165-.897 6.1 6.1 0 0 1 4.479-.51 6.047 6.047 0 0 1-.195-1.11 1.875 1.875 0 1 1 3.738-.299c.03.382.157.752.366 1.071l3.138 4.79a1.875 1.875 0 0 1-2.596 2.595l-4.789-3.137a2.315 2.315 0 0 0-2.003-.25l1.288 3.133a1.875 1.875 0 1 1-3.468 1.426l-1.287-3.13c-.692.3-1.201.911-1.355 1.649l-1.168 5.603a1.875 1.875 0 0 1-3.67 0l-1.168-5.603a2.317 2.317 0 0 0-1.314-1.631l-1.338 3.135a1.876 1.876 0 1 1-3.449-1.472l1.322-3.097a2.317 2.317 0 0 0-2.046.236l-4.79 3.138a1.875 1.875 0 0 1-2.595-2.596l3.137-4.789c.38-.579.47-1.295.268-1.953l-3.1 1.284a1.875 1.875 0 0 1-1.434-3.465l3.107-1.287a2.319 2.319 0 0 0-1.669-1.404l-5.603-1.168a1.875 1.875 0 0 1 0-3.67l5.603-1.168a2.315 2.315 0 0 0 1.608-1.267l-3.08-1.344a1.875 1.875 0 1 1 1.501-3.437l3.018 1.318a2.319 2.319 0 0 0-.219-2.095l-3.137-4.79a1.875 1.875 0 0 1 2.596-2.595l4.789 3.137c.566.371 1.263.466 1.91.28l-1.208-3.102a1.875 1.875 0 0 1 3.494-1.36l1.184 3.04a2.32 2.32 0 0 0 1.445-1.686l1.168-5.604a1.875 1.875 0 0 1 3.67 0l1.168 5.604c.153.732.655 1.34 1.339 1.642l1.315-3.057a1.875 1.875 0 1 1 3.445 1.482l-1.294 3.006c.676.231 1.422.147 2.02-.245l4.79-3.137a1.875 1.875 0 0 1 2.595 2.596l-3.137 4.789a2.319 2.319 0 0 0-.216 2.102l3.01-1.323a1.875 1.875 0 1 1 1.51 3.433l-3.08 1.353a2.315 2.315 0 0 0 1.604 1.26l5.603 1.167zm-16.413 6.617a1.875 1.875 0 1 1 0-3.75 1.875 1.875 0 0 1 0 3.75zm-9.703-7.687a5.49 5.49 0 0 1 5.484 5.484 5.49 5.49 0 0 1-5.484 5.485 5.49 5.49 0 0 1-5.485-5.485 5.49 5.49 0 0 1 5.485-5.484zm0 7.218c.956 0 1.734-.778 1.734-1.734s-.778-1.734-1.734-1.734c-.957 0-1.735.778-1.735 1.734s.778 1.735 1.735 1.735z"/>
    </defs>
    <g fill="none" fill-rule="evenodd" transform="translate(0 .32)">
        <mask id="b" fill="#fff">
            <use xlink:href="#a"/>
        </mask>
        <use fill="#000" fill-rule="nonzero" xlink:href="#a"/>
        <g fill="#000" fill-rule="nonzero" mask="url(#b)">
            <path d="M0 0h48v48H0z"/>
        </g>
    </g>
</svg>
