<svg xmlns="http://www.w3.org/2000/svg" xmlns:xlink="http://www.w3.org/1999/xlink" width="42" height="42" viewBox="0 0 42 42">
    <defs>
        <path id="a" d="M39.398 28.027c.885 0 1.602-.717 1.602-1.601v-15.61c0-2.655-1.973-4.582-4.69-4.582-.494 0-.973.084-1.427.242-.456-2.053-2.28-3.593-4.453-3.593-.556 0-1.088.1-1.581.284A4.572 4.572 0 0 0 24.504 0a4.571 4.571 0 0 0-4.216 2.816 4.538 4.538 0 0 0-1.71-.334 4.57 4.57 0 0 0-4.564 4.565V24.46c0 .814-.53 1.961-1.395 2.042l-6.106-2.8a1.615 1.615 0 0 0-.147-.06A4.81 4.81 0 0 0 0 28.188a4.77 4.77 0 0 0 1.441 3.432c.06.058.124.111.191.16l1.284.915c.026.02.054.038.082.055l7.73 4.824A22.588 22.588 0 0 0 22.697 41h9.374a8.914 8.914 0 0 0 8.443-6.02 1.602 1.602 0 0 0-3.031-1.037 5.711 5.711 0 0 1-5.412 3.854h-9.374a19.387 19.387 0 0 1-10.273-2.942l-7.688-4.797-1.124-.802a1.603 1.603 0 0 1 1.651-2.604l6.106 2.801a3.078 3.078 0 0 0 1.315.254c2.8-.107 4.533-2.807 4.533-5.247V7.047c0-.75.61-1.361 1.361-1.361.75 0 1.361.61 1.361 1.36V19.54a1.602 1.602 0 1 0 3.204 0V4.564c0-.75.61-1.36 1.36-1.36.752 0 1.362.61 1.362 1.36V19.54a1.602 1.602 0 1 0 3.203 0V7.481c0-.77.611-1.395 1.362-1.395.75 0 1.361.626 1.361 1.395V19.54a1.602 1.602 0 1 0 3.203 0v-8.615c0-.703.54-1.487 1.316-1.487.447 0 1.487.135 1.487 1.379v15.61c0 .884.717 1.601 1.601 1.601z"/>
    </defs>
    <g fill="none" fill-rule="evenodd" transform="translate(.395 .613)">
        <mask id="b" fill="#fff">
            <use xlink:href="#a"/>
        </mask>
        <use fill="#2282FF" fill-rule="nonzero" xlink:href="#a"/>
        <g fill="#2282FF" fill-rule="nonzero" mask="url(#b)">
            <path d="M0 0h41v41H0z"/>
        </g>
    </g>
</svg>
