<?xml version="1.0" encoding="UTF-8"?>
<svg width="99px" height="89px" viewBox="0 0 99 89" version="1.1" xmlns="http://www.w3.org/2000/svg" xmlns:xlink="http://www.w3.org/1999/xlink">
    <!-- Generator: Sketch 51.3 (57544) - http://www.bohemiancoding.com/sketch -->
    <title>icon</title>
    <desc>Created with Sketch.</desc>
    <defs>
        <path d="M71.9816657,9.08559153 C64.1240125,3.14153306 54.7357941,0 44.8317498,0 C20.1115709,0 0,19.9627476 0,44.5 C0,69.0372524 20.1115709,89 44.8317498,89 C56.8066141,89 68.0650536,84.3714031 76.53249,75.9661584 C77.6332004,74.8735932 77.6332004,73.1020801 76.53249,72.0095148 C75.4317797,70.9169496 73.64659,70.9169496 72.5463494,72.0095148 C65.1434498,79.3576339 55.3009475,83.4042754 44.8317498,83.4042754 C23.2201498,83.4042754 5.63744103,65.9521429 5.63744103,44.5 C5.63744103,23.0478571 23.21968,5.59572461 44.8317498,5.59572461 C62.1640622,5.59572461 77.6430659,17.1205858 82.4738831,33.622844 C82.907966,35.1066436 84.4718861,35.9595253 85.9672174,35.5286545 C87.4620788,35.0973174 88.3217886,33.5449701 87.8872358,32.0611705 C85.2338802,22.9965629 79.5851643,14.8365975 71.9816657,9.08559153 Z" id="path-1"></path>
        <path d="M76.8396628,35.8133005 C75.7320771,34.7288998 73.9369755,34.7288998 72.8303349,35.8133005 C71.7232217,36.8977011 71.7232217,38.6559759 72.8303349,39.7403765 L83.4950998,50.1868153 C84.0266842,50.7074942 84.747749,51 85.5,51 C86.252251,51 86.9733158,50.7074942 87.5049002,50.1868153 L98.1696651,39.7403765 C99.2767783,38.6559759 99.2767783,36.8977011 98.1696651,35.8133005 C97.0620794,34.7288998 95.2669779,34.7288998 94.1603372,35.8133005 L85.5,44.2959698 L76.8396628,35.8133005 Z" id="path-3"></path>
    </defs>
    <g id="playground" stroke="none" stroke-width="1" fill="none" fill-rule="evenodd">
        <g id="Artboard" transform="translate(-48.000000, -90.000000)">
            <g id="icon" transform="translate(48.000000, 90.000000)">
                <mask id="mask-2" fill="white">
                    <use xlink:href="#path-1"></use>
                </mask>
                <use id="Mask" fill="#000000" fill-rule="nonzero" xlink:href="#path-1"></use>
                <g id="color/primary/white" mask="url(#mask-2)" fill="#FFFFFF" fill-rule="nonzero">
                    <g transform="translate(-27.000000, -5.000000)" id="base-color">
                        <rect x="0" y="0" width="135" height="135"></rect>
                    </g>
                </g>
                <mask id="mask-4" fill="white">
                    <use xlink:href="#path-3"></use>
                </mask>
                <use id="Mask" fill="#22FF9F" fill-rule="nonzero" xlink:href="#path-3"></use>
                <g id="color/primary/white" mask="url(#mask-4)" fill="#FFFFFF" fill-rule="nonzero">
                    <g transform="translate(-27.000000, -5.000000)" id="base-color">
                        <rect x="0" y="0" width="135" height="135"></rect>
                    </g>
                </g>
            </g>
        </g>
    </g>
</svg>