<?xml version="1.0" encoding="UTF-8"?>
<svg width="14px" height="25px" viewBox="0 0 14 25" version="1.1" xmlns="http://www.w3.org/2000/svg" xmlns:xlink="http://www.w3.org/1999/xlink">
    <!-- Generator: Sketch 51.3 (57544) - http://www.bohemiancoding.com/sketch -->
    <title>right chevron</title>
    <desc>Created with Sketch.</desc>
    <defs></defs>
    <g id="playground" stroke="none" stroke-width="1" fill="none" fill-rule="evenodd">
        <g id="Artboard" transform="translate(-80.000000, -68.000000)" fill="#FFFFFF" fill-rule="nonzero">
            <path d="M98.7261099,74.2752857 C98.3603442,73.90877 97.766813,73.9082075 97.4002505,74.2739263 L87.6629067,83.9910669 C87.2973286,84.3565982 86.7026255,84.3565513 86.3363911,83.9903638 L76.5997505,74.2739263 C76.2332349,73.9081607 75.6397036,73.90877 75.2738911,74.2752857 C74.9081724,74.6418013 74.9087817,75.2353794 75.2752505,75.6010982 L85.0112349,85.3168794 C85.5597192,85.86527 86.2799536,86.139395 87.0002817,86.139395 C87.720188,86.139395 88.4402349,85.8653638 88.9880161,85.3175357 L98.7247505,75.6010982 C99.0912192,75.2353794 99.0918286,74.6418013 98.7261099,74.2752857 Z" id="right-chevron" transform="translate(87.000000, 80.069698) rotate(-90.000000) translate(-87.000000, -80.069698) "></path>
        </g>
    </g>
</svg>