<svg xmlns="http://www.w3.org/2000/svg" xmlns:xlink="http://www.w3.org/1999/xlink" width="48" height="49" viewBox="0 0 48 49">
    <defs>
        <path id="a" d="M41.967 6.024A20.585 20.585 0 0 0 28.349.002a2.172 2.172 0 1 0-.203 4.34 16.247 16.247 0 0 1 10.75 4.754c6.35 6.352 6.35 16.689 0 23.041-6.351 6.353-16.686 6.353-23.037 0-6.35-6.352-6.35-16.689 0-23.04a2.172 2.172 0 0 0-3.071-3.073c-7.46 7.461-7.997 19.26-1.622 27.351L.716 43.828a2.445 2.445 0 0 0 3.455 3.456l10.45-10.452a20.58 20.58 0 0 0 12.756 4.412c5.284 0 10.567-2.011 14.59-6.035 8.044-8.046 8.044-21.138 0-29.185"/>
    </defs>
    <g fill="none" fill-rule="evenodd" transform="translate(0 .824)">
        <mask id="b" fill="#fff">
            <use xlink:href="#a"/>
        </mask>
        <use fill="#8b898e" xlink:href="#a"/>
        <g fill="#8b898e" fill-rule="nonzero" mask="url(#b)">
            <path d="M0 0h48v48H0z"/>
        </g>
    </g>
</svg>
