<?xml version="1.0" encoding="UTF-8"?>
<svg width="100px" height="100px" viewBox="0 0 100 100" version="1.1" xmlns="http://www.w3.org/2000/svg" xmlns:xlink="http://www.w3.org/1999/xlink">
    <!-- Generator: Sketch 51.3 (57544) - http://www.bohemiancoding.com/sketch -->
    <title>icon/sensors</title>
    <desc>Created with Sketch.</desc>
    <defs>
        <path d="M85.6962891,77.4625 C89.8738281,79.6539062 91.9921875,82.4097656 91.9921875,85.653125 C91.9921875,90.4996094 87.2722656,94.2509766 77.9636719,96.8029297 C70.4431641,98.8646484 60.5121094,100 50,100 C39.4878906,100 29.5568359,98.8646484 22.0363281,96.8029297 C12.7277344,94.2509766 8.0078125,90.4996094 8.0078125,85.653125 C8.0078125,82.4097656 10.1261719,79.6539062 14.3039063,77.4625 C17.3087891,75.8863281 21.434375,74.5583984 26.5660156,73.515625 C28.6798828,73.0867187 30.7423828,74.4517578 31.171875,76.5658203 C31.6013672,78.6798828 30.2357422,80.7421875 28.1216797,81.1716797 C20.2056641,82.7800781 16.9605469,84.7105469 16.0244141,85.6466797 C16.7140625,86.3378906 19.0199219,88.0724609 25.7949219,89.7033203 C32.4496094,91.3052734 41.0455078,92.1875 50,92.1875 C58.9544922,92.1875 67.5503906,91.3052734 74.2052734,89.7033203 C80.9800781,88.0724609 83.2861328,86.3376953 83.9757812,85.6466797 C83.0396484,84.7105469 79.7943359,82.7800781 71.8785156,81.1716797 C69.7644531,80.7421875 68.3988281,78.6798828 68.8283203,76.5658203 C69.2580078,74.4519531 71.3189453,73.0865234 73.4341797,73.515625 C78.5658203,74.5583984 82.6914062,75.8863281 85.6962891,77.4625 Z M49.7077973,81.0331384 C46.1550884,81.0331384 43.2750487,78.1530988 43.2750487,74.6003899 C43.2750487,71.0476809 46.1550884,68.1676413 49.7077973,68.1676413 C53.2605062,68.1676413 56.1405458,71.0476809 56.1405458,74.6003899 C56.1405458,78.1530988 53.2605062,81.0331384 49.7077973,81.0331384 Z M98.7586745,30.2853801 C100.226706,31.8604288 100.139766,34.3272904 98.5647173,35.7955166 C97.8134503,36.4955166 96.8592593,36.8421053 95.9074074,36.8421053 C94.8635478,36.8421053 93.8224172,36.4253411 93.0545809,35.6015595 C81.7329435,23.454191 66.4081871,16.7643275 49.9033138,16.7641326 C33.397076,16.7643275 18.0723197,23.454191 6.75068226,35.6015595 C5.28265107,37.1768031 2.81578947,37.2633528 1.24054581,35.7955166 C-0.334502924,34.3274854 -0.421247563,31.8604288 1.04658869,30.2853801 C13.8596491,16.5382066 31.2099415,8.96705653 49.9019493,8.9668616 C68.5955166,8.96705653 85.945809,16.5382066 98.7586745,30.2853801 Z M84.4432749,46.385575 C85.960039,47.9138402 85.9506823,50.3822612 84.4226121,51.8990253 C83.6619883,52.6536062 82.668616,53.0306043 81.6760234,53.0306043 C80.6732943,53.0306043 79.6709552,52.6461988 78.9087719,51.8783626 C70.9126706,43.8218324 60.611306,39.3849903 49.9021442,39.3853801 C39.1902534,39.385575 28.8888889,43.8222222 20.8957115,51.8779727 C19.3791423,53.4064327 16.9107212,53.4159844 15.3822612,51.8994152 C13.8538012,50.382846 13.8442495,47.914425 15.3608187,46.3859649 C24.8290448,36.8436647 37.0961014,31.5883041 49.9021442,31.5881092 C62.7052632,31.5877193 74.9721248,36.842885 84.4432749,46.385575 Z M68.8403509,62.5325536 C70.3699805,64.0479532 70.3814815,66.5165692 68.8658869,68.0460039 C67.3506823,69.5760234 64.8818713,69.5869396 63.3524366,68.0717349 C59.7421053,64.4945419 54.4479532,62.1832359 49.8653021,62.1832359 C49.8645224,62.1832359 49.8643275,62.1832359 49.8635478,62.1832359 L49.5814815,62.1832359 C49.5808967,62.1832359 49.580117,62.1832359 49.5795322,62.1832359 C44.9962963,62.1832359 39.7025341,64.494347 36.0918129,68.0717349 C35.3317739,68.8247563 34.3397661,69.2007797 33.3481481,69.2007797 C32.3444444,69.2007797 31.3409357,68.8153996 30.5785575,68.0460039 C29.0631579,66.5163743 29.0746589,64.0479532 30.6040936,62.5325536 C35.6760234,57.5076023 42.9469786,54.3859649 49.5791423,54.3859649 C49.5803119,54.3859649 49.5808967,54.3859649 49.5820663,54.3859649 L49.862963,54.3859649 C49.8637427,54.3859649 49.8651072,54.3859649 49.8658869,54.3859649 C56.4978558,54.3859649 63.7682261,57.5074074 68.8403509,62.5325536 Z" id="path-1"></path>
    </defs>
    <g id="icon/sensors" stroke="none" stroke-width="1" fill="none" fill-rule="evenodd">
        <mask id="mask-2" fill="white">
            <use xlink:href="#path-1"></use>
        </mask>
        <use id="Combined-Shape" fill="#000000" fill-rule="nonzero" xlink:href="#path-1"></use>
        <g id="color/text_note" mask="url(#mask-2)" fill="#003CF8" fill-rule="nonzero">
            <rect id="base-color" x="0" y="0" width="100" height="100"></rect>
        </g>
    </g>
</svg>
