<svg xmlns="http://www.w3.org/2000/svg" xmlns:xlink="http://www.w3.org/1999/xlink" width="100" height="100" viewBox="0 0 100 100">
    <defs>
        <path id="a" d="M85.348 18.074L45.387.335a3.897 3.897 0 0 0-3.177.006L2.64 18.08a3.899 3.899 0 0 0-2.305 3.557v30.8c0 11.64 4.6 23.538 12.62 32.644 4.035 4.58 8.685 8.205 13.823 10.773C32.282 98.605 38.076 100 44 100c8.295 0 16.368-2.685 23.347-7.764a3.898 3.898 0 1 0-4.589-6.304c-5.637 4.102-12.123 6.27-18.758 6.27-18.772 0-35.867-18.953-35.867-39.765V24.162l35.68-15.994 36.054 16.004v28.265c0 7.179-2.062 14.444-5.964 21.01a3.899 3.899 0 1 0 6.703 3.983c4.618-7.77 7.059-16.413 7.059-24.993v-30.8a3.9 3.9 0 0 0-2.317-3.563z"/>
    </defs>
    <g fill="none" fill-rule="evenodd" transform="translate(6)">
        <mask id="b" fill="#fff">
            <use xlink:href="#a"/>
        </mask>
        <use fill="#fff" fill-rule="nonzero" xlink:href="#a"/>
        <g fill="#fff" fill-rule="nonzero" mask="url(#b)">
            <path d="M-6 0H94v100H-6z"/>
        </g>
    </g>
</svg>
