<?xml version="1.0" encoding="UTF-8"?>
<svg width="100px" height="100px" viewBox="0 0 100 100" version="1.1" xmlns="http://www.w3.org/2000/svg" xmlns:xlink="http://www.w3.org/1999/xlink">
    <!-- Generator: Sketch 51.3 (57544) - http://www.bohemiancoding.com/sketch -->
    <title>icon/sound</title>
    <desc>Created with Sketch.</desc>
    <defs>
        <path d="M19.1485829,23.1858247 C19.1485829,20.9028826 20.9956361,19.0521924 23.2740916,19.0521924 C25.5525472,19.0521924 27.3996003,20.9028826 27.3996003,23.1858247 L27.3996003,82.1559436 C27.3996003,84.4388858 25.5525472,86.289576 23.2740916,86.289576 C20.9956361,86.289576 19.1485829,84.4388858 19.1485829,82.1559436 L19.1485829,23.1858247 Z M37.2986828,9.75151949 C37.2986828,7.46857736 39.145736,5.6178871 41.4241915,5.6178871 C43.7026471,5.6178871 45.5497002,7.46857736 45.5497002,9.75151949 L45.5497002,95.5902489 C45.5497002,97.873191 43.7026471,99.7238813 41.4241915,99.7238813 C39.145736,99.7238813 37.2986828,97.873191 37.2986828,95.5902489 L37.2986828,9.75151949 Z M55.4487828,4.13363238 C55.4487828,1.85069026 57.2958359,0 59.5742915,0 C61.852747,0 63.6998002,1.85069026 63.6998002,4.13363238 L63.6998002,71.2739934 C63.6998002,73.5569355 61.852747,75.4076258 59.5742915,75.4076258 C57.2958359,75.4076258 55.4487828,73.5569355 55.4487828,71.2739934 L55.4487828,4.13363238 Z M73.5988827,30.3179756 C73.5988827,28.0350335 75.4459358,26.1843432 77.7243914,26.1843432 C80.0028469,26.1843432 81.8499001,28.0350335 81.8499001,30.3179756 L81.8499001,90.4232084 C81.8499001,92.7061505 80.0028469,94.5568408 77.7243914,94.5568408 C75.4459358,94.5568408 73.5988827,92.7061505 73.5988827,90.4232084 L73.5988827,30.3179756 Z M91.7489826,60.2868104 C91.7489826,58.0038683 93.5960358,56.153178 95.8744913,56.153178 C98.1529468,56.153178 100,58.0038683 100,60.2868104 L100,69.6891891 C100,71.9721312 98.1529468,73.8228214 95.8744913,73.8228214 C93.5960358,73.8228214 91.7489826,71.9721312 91.7489826,69.6891891 L91.7489826,60.2868104 Z M0.998482996,36.62013 C0.998482996,34.3371879 2.84553615,32.4864976 5.12399169,32.4864976 C7.40244723,32.4864976 9.24950038,34.3371879 9.24950038,36.62013 L9.24950038,57.1865861 C9.24950038,59.4695282 7.40244723,61.3202185 5.12399169,61.3202185 C2.84553615,61.3202185 0.998482996,59.4695282 0.998482996,57.1865861 L0.998482996,36.62013 Z" id="path-1"></path>
    </defs>
    <g id="icon/sound" stroke="none" stroke-width="1" fill="none" fill-rule="evenodd">
        <mask id="mask-2" fill="white">
            <use xlink:href="#path-1"></use>
        </mask>
        <use id="Mask" fill="#979797" fill-rule="nonzero" xlink:href="#path-1"></use>
        <g id="color/primary/blue0" mask="url(#mask-2)" fill="#3322FF" fill-rule="nonzero">
            <rect id="base-color" x="0" y="0" width="100" height="100"></rect>
        </g>
    </g>
</svg>