<?xml version="1.0" encoding="UTF-8"?>
<svg width="100px" height="100px" viewBox="0 0 100 100" version="1.1" xmlns="http://www.w3.org/2000/svg" xmlns:xlink="http://www.w3.org/1999/xlink">
    <!-- Generator: Sketch 51.3 (57544) - http://www.bohemiancoding.com/sketch -->
    <title>icon/time</title>
    <desc>Created with Sketch.</desc>
    <defs>
        <path d="M85.3554688,14.6445312 C94.7990234,24.0884766 100,36.6445312 100,50 C100,59.8693359 97.0705078,69.4675781 91.5285156,77.7570312 C90.3294922,79.5503906 87.9037109,80.0324219 86.1101563,78.8333984 C84.3166016,77.634375 83.8347656,75.2083984 85.0337891,73.4150391 C89.7138672,66.4148438 92.1875,58.3181641 92.1875,50 C92.1875,26.7376953 73.2623047,7.8125 50,7.8125 C26.7376953,7.8125 7.8125,26.7376953 7.8125,50 C7.8125,73.2623047 26.7376953,92.1875 50,92.1875 C57.7158203,92.1875 65.2623047,90.0867188 71.8238281,86.1121094 C73.66875,84.9943359 76.0710938,85.5839844 77.1886719,87.4294922 C78.3064453,89.2746094 77.7166016,91.6765625 75.8712891,92.7943359 C68.0892578,97.5083984 59.1431641,100 50,100 C36.6445312,100 24.0884766,94.7990234 14.6445312,85.3554688 C5.20097656,75.9115234 0,63.3554688 0,50 C0,36.6445312 5.20097656,24.0884766 14.6445312,14.6445312 C24.0884766,5.20097656 36.6445312,0 50,0 C63.3554688,0 75.9115234,5.20097656 85.3554688,14.6445312 Z M50,14.84375 C52.1574219,14.84375 53.90625,16.5925781 53.90625,18.75 L53.90625,50 C53.90625,51.0359375 53.4947266,52.0296875 52.7621094,52.7621094 L37.2941406,68.2300781 C36.5314453,68.9927734 35.5318359,69.3742187 34.5320312,69.3742187 C33.5322266,69.3742187 32.5326172,68.9927734 31.7699219,68.2300781 C30.2443359,66.7044922 30.2443359,64.23125 31.7699219,62.7058594 L46.09375,48.3820313 L46.09375,18.75 C46.09375,16.5925781 47.8425781,14.84375 50,14.84375 Z" id="path-1"></path>
    </defs>
    <g id="icon/time" stroke="none" stroke-width="1" fill="none" fill-rule="evenodd">
        <mask id="mask-2" fill="white">
            <use xlink:href="#path-1"></use>
        </mask>
        <use id="Mask" fill="#000000" fill-rule="nonzero" xlink:href="#path-1"></use>
        <g id="color/text_note" mask="url(#mask-2)" fill="#8886A0" fill-rule="nonzero">
            <rect id="base-color" x="0" y="0" width="100" height="100"></rect>
        </g>
    </g>
</svg>