<svg xmlns="http://www.w3.org/2000/svg" xmlns:xlink="http://www.w3.org/1999/xlink" width="48" height="49" viewBox="0 0 48 49">
    <defs>
        <path id="a" d="M46.708 2.311C41.692.668 34.561-.164 27.145.028 20.183.208 13.619 1.245 8.66 2.946 1.479 5.412-.013 8.473.001 10.606c.005.929.316 2.33 1.764 3.733 1.699 1.645 4.671 2.988 8.501 3.939-2.272 1.011-3.422 2.331-3.422 3.94 0 2.107 1.968 3.72 5.851 4.791 3.045.84 7.06 1.303 11.305 1.303 5.255 0 8.457 1.177 9.377 1.875-.768.583-3.127 1.499-6.943 1.786a18.27 18.27 0 0 0-1.25.068c-.382.013-.776.021-1.184.021-5.48 0-8.764-1.247-9.546-2.033a1.875 1.875 0 0 0-2.658 2.646c1.293 1.298 3.596 2.127 6.144 2.605a3.54 3.54 0 0 0-.597 1.938c0 .968.436 2.78 3.356 4.042 1.197.517 2.657.867 4.231 1.023-.094.33-.143.674-.143 1.03 0 2.628 2.702 4.687 6.15 4.687a1.875 1.875 0 1 0 0-3.75c-1.6 0-2.4-.759-2.4-.938 0-.179.8-.937 2.4-.937a1.875 1.875 0 1 0 0-3.75h-4.125c-3.205 0-5.142-.908-5.64-1.414.413-.44 1.877-1.196 4.224-1.425.405-.015.81-.037 1.21-.066l.206-.002c.144 0 .283-.017.418-.048 5.406-.485 10.082-2.233 10.082-5.483 0-1.293-.74-2.347-1.972-3.18 1.722-.478 3.2-1.104 4.225-1.905a1.875 1.875 0 1 0-2.308-2.955c-1.536 1.2-6.584 2.415-13.257 2.415-3.468 0-6.817-.336-9.432-.946-2.133-.497-3.246-1.05-3.736-1.397.49-.348 1.603-.9 3.736-1.398 2.615-.61 5.964-.946 9.432-.946.04 0 .08-.004.119-.006a82.647 82.647 0 0 0 3.222-.022c.104-.003.204-.016.302-.035 3.744-.126 7.278-.701 9.97-1.626 4.397-1.509 5.31-3.546 5.3-4.99-.004-.67-.22-1.672-1.222-2.642-2.686-2.6-9.285-3.38-14.565-3.244-3.19.083-6.899.63-9.92 1.462a1.875 1.875 0 0 0 .997 3.615c1.028-.283 4.717-1.217 9.02-1.328 6.04-.156 10.595.999 11.84 2.171-.283.295-1.054.856-2.667 1.41-2.397.823-5.622 1.332-9.079 1.432a1.873 1.873 0 0 0-.276.03c-11.58.272-20.16-2.03-22.668-4.457-.283-.274-.62-.681-.623-1.063-.004-.685 1.271-2.421 6.129-4.089 4.606-1.581 10.772-2.546 17.363-2.716 7.003-.182 13.674.583 18.299 2.098a1.875 1.875 0 1 0 1.167-3.564z"/>
    </defs>
    <g fill="none" fill-rule="evenodd" transform="translate(0 .219)">
        <mask id="b" fill="#fff">
            <use xlink:href="#a"/>
        </mask>
        <use fill="#000" fill-rule="nonzero" xlink:href="#a"/>
        <g fill="#FFF" fill-rule="nonzero" mask="url(#b)">
            <path d="M0 0h48v48H0z"/>
        </g>
    </g>
</svg>
