<?xml version="1.0" encoding="UTF-8"?>
<svg width="49px" height="49px" viewBox="0 0 49 49" version="1.1" xmlns="http://www.w3.org/2000/svg" xmlns:xlink="http://www.w3.org/1999/xlink">
    <!-- Generator: Sketch 51.3 (57544) - http://www.bohemiancoding.com/sketch -->
    <title>zoom in</title>
    <desc>Created with Sketch.</desc>
    <defs>
        <circle id="path-1" cx="23.84" cy="24.0979687" r="24"></circle>
        <path d="M24.984375,11.984375 L14.015625,11.984375 L14.015625,1.015625 C14.015625,0.454695313 13.5609297,0 13,0 C12.4390703,0 11.984375,0.454695313 11.984375,1.015625 L11.984375,11.984375 L1.015625,11.984375 C0.454695313,11.984375 0,12.4390703 0,13 C0,13.5609297 0.454695313,14.015625 1.015625,14.015625 L11.984375,14.015625 L11.984375,24.984375 C11.984375,25.5453047 12.4390703,26 13,26 C13.5609297,26 14.015625,25.5453047 14.015625,24.984375 L14.015625,14.015625 L24.984375,14.015625 C25.5453047,14.015625 26,13.5609297 26,13 C26,12.4390703 25.5453047,11.984375 24.984375,11.984375 Z" id="path-3"></path>
    </defs>
    <g id="Admin-Portal" stroke="none" stroke-width="1" fill="none" fill-rule="evenodd">
        <g id="003-many-Event---Desktops---(≥1200px)" transform="translate(-1371.000000, -86.000000)">
            <g id="map-controls" transform="translate(1372.000000, 86.000000)">
                <g id="icon-circled">
                    <mask id="mask-2" fill="white">
                        <use xlink:href="#path-1"></use>
                    </mask>
                    <use id="Mask" fill="#D8D8D8" fill-rule="nonzero" xlink:href="#path-1"></use>
                    <g id="color/primary/black0" mask="url(#mask-2)" fill="#000000" fill-rule="nonzero">
                        <g transform="translate(-0.160000, 0.097969)" id="base-color">
                            <rect x="0" y="0" width="48" height="48"></rect>
                        </g>
                    </g>
                    <g id="icon/+" mask="url(#mask-2)">
                        <g transform="translate(11.200000, 11.200000)">
                            <mask id="mask-4" fill="white">
                                <use xlink:href="#path-3"></use>
                            </mask>
                            <use id="Mask" stroke="none" fill="#000000" fill-rule="nonzero" xlink:href="#path-3"></use>
                            <g id="color/accent/Cyan" stroke="none" fill="none" mask="url(#mask-4)" fill-rule="nonzero">
                                <rect id="base-color" fill="#22F0FF" x="0" y="0" width="26" height="26"></rect>
                            </g>
                        </g>
                    </g>
                </g>
            </g>
        </g>
    </g>
</svg>